<?xml version="1.0" standalone="no"?>
<!DOCTYPE svg PUBLIC "-//W3C//DTD SVG 1.1//EN" "http://www.w3.org/Graphics/SVG/1.1/DTD/svg11.dtd" >
<svg>
<metadata>
Created by FontForge 20110222 at Mon Oct  7 06:57:28 2013
 By www-data
Vanessa Bays - ByTheButterfly.com
</metadata>
<defs>
<font id="Runningforacause" horiz-adv-x="380" >
  <font-face 
    font-family="Running for a cause"
    font-weight="500"
    font-stretch="normal"
    units-per-em="1000"
    panose-1="2 0 6 3 0 0 0 0 0 0"
    ascent="800"
    descent="-200"
    x-height="483"
    cap-height="699"
    bbox="-88.1429 -192 779.2 870.143"
    underline-thickness="50"
    underline-position="-100"
    unicode-range="U+0020-2122"
  />
    <missing-glyph />
    <glyph glyph-name="space" unicode=" " horiz-adv-x="248" 
 />
    <glyph glyph-name="exclam" unicode="!" horiz-adv-x="135" 
d="M87 698q30 -236 -8 -587q-1 -9 -8 -15t-16 -5t-15 8t-5 16q38 347 8 577q-1 9 4.5 16.5t14.5 8.5t16.5 -4.5t8.5 -14.5zM73 2q0 -9 -6.5 -15.5t-15.5 -6.5t-15.5 6.5t-6.5 15.5t6.5 15.5t15.5 6.5t15.5 -6.5t6.5 -15.5z" />
    <glyph glyph-name="quotedbl" unicode="&#x22;" horiz-adv-x="231" 
d="M72 655q-2 -55 -2 -151q0 -9 -6.5 -15.5t-15.5 -6.5t-15.5 6.5t-6.5 15.5q0 96 2 153q0 9 7 15t16 6t15 -7t6 -16zM196 658q-6 -106 -6 -158q0 -9 -6.5 -15.5t-15.5 -6.5t-15.5 6.5t-6.5 15.5q0 54 6 160q1 9 7.5 15t15.5 5.5t15 -7t6 -15.5z" />
    <glyph glyph-name="numbersign" unicode="#" horiz-adv-x="521" 
d="M330 441l-136 -57v-45q0 -12 2 -106l144 60q-9 77 -10 148zM329 489q1 65 7 127q1 9 8 15t16 5t15 -8t5 -16q-5 -52 -6 -105l64 25q8 4 16.5 0.5t12 -12t0 -17t-12.5 -11.5l-81 -33q1 -71 9 -148l77 30q8 4 16.5 0.5t12 -12t0 -17t-12.5 -11.5l-88 -36q9 -71 24 -153
q1 -9 -4 -16.5t-14 -9t-16.5 3.5t-9.5 14q-14 77 -22 144l-148 -63q1 -40 1 -73q0 -9 -6.5 -15.5t-15.5 -6.5t-15.5 6.5t-6.5 15.5v55l-56 -24q-9 -4 -17.5 -0.5t-12 12t0 17t11.5 11.5l73 31q0 13 -1 56.5t-2 67.5v27l-73 -31q-9 -4 -17.5 -0.5t-12 12t0 17t11.5 11.5
l90 39q0 86 5 153q1 10 7.5 16t16 5t15.5 -7.5t5 -15.5q-4 -60 -5 -132z" />
    <glyph glyph-name="dollar" unicode="$" horiz-adv-x="442" 
d="M366 568q-9 46 -48 71t-91 24q-51 0 -90 -25.5t-47 -66.5q-11 -53 34 -117q12 -18 78 -78q80 -73 115 -110q65 -70 84 -123q26 -74 -28 -123q-22 -20 -48 -30t-56.5 -10.5t-51 1.5t-50.5 7q-73 13 -128 36q-8 3 -11.5 11.5t0 17t12 12t17.5 -0.5q49 -21 118 -32
q38 -7 63.5 -8.5t55 4.5t49.5 24q33 30 16 76q-16 45 -75 108q-33 36 -112 108q-68 62 -84 84q-56 80 -42 151q13 61 65 94.5t116 33.5q64 1 116.5 -32.5t66.5 -98.5q1 -8 -4 -16t-13.5 -9.5t-16.5 3.5t-10 14zM270 -66q-4 -48 0 -88q1 -9 -5 -16t-15 -8t-16 5t-8 15
q-4 44 0 96q1 9 8 15t16 5t15 -8t5 -16zM270 810v-53q0 -9 -6.5 -15.5t-15.5 -6.5t-15.5 6.5t-6.5 15.5v53q0 9 6.5 15.5t15.5 6.5t15.5 -6.5t6.5 -15.5z" />
    <glyph glyph-name="percent" unicode="%" horiz-adv-x="623" 
d="M203 534q-6 1 -14 1t-19 -1l-4 -1q0 -5 -1 -13l-1 -7q-1 -7 -1 -10q-2 -16 1 -24q2 -3 3 -5q8 5 15 16q12 17 18 37q2 4 3 7zM389 103q2 0 5 2q10 8 16 30q5 21 0 28q-4 5 -18 7q-11 -31 -8 -52q1 -12 5 -15zM369 205q8 11 21 10q40 -5 56 -27q16 -23 6 -63
q-9 -36 -31 -54q-26 -21 -52 -7q-25 13 -29 49q-4 33 12 78q5 12 17 14zM161 582q19 2 84 15l135 28q120 25 126 26q27 5 42 7q8 2 13 2h6h5q6 -2 11 -6q12 -11 8 -26q-2 -7 -8 -14q-2 -3 -6 -8q-3 -2 -3 -3q-23 -30 -68 -76q-51 -52 -66 -70q-171 -204 -235 -404
q-3 -8 -11 -12.5t-16.5 -1.5t-13 11t-1.5 17q66 207 243 418q18 21 69 73q35 36 48 51l-9 -1l-125 -26l-135 -28l-8 -1q3 -8 1.5 -17.5t-5.5 -22.5q-9 -26 -24 -48q-20 -30 -41 -36q-18 -5 -33 6q-13 9 -20 28q-8 17 -5 44l2 18q1 9 1 15q0 11 8 17q2 15 17 19q6 5 14 6z
" />
    <glyph glyph-name="ampersand" unicode="&#x26;" horiz-adv-x="491" 
d="M328 515q-1 10 -3 24t-3 22t-3.5 18t-7.5 18q-7 11 -17 13q-11 2 -28 -6q-38 -18 -83 -72q-44 -54 -66 -108q-22 -51 -11 -67q9 -16 22 -19q12 -3 29 3q9 4 19.5 9.5t18 10t19.5 12.5t17 11l3 3q25 18 45 27q2 1 3.5 1.5t2.5 0.5q5 2 10 1q12 -2 17 -13q4 -10 -1 -20
q-2 -3 -5 -6l-4 -2q-3 -3 -14 -9l-29 -17q-64 -49 -116 -126q-39 -56 -51 -101q-11 -45 8 -69q12 -15 54 -17q71 -4 132 53q62 57 85 136q-40 -8 -80 -11q-9 -1 -15.5 5.5t-7.5 15.5t5.5 15.5t15.5 7.5q71 4 156 32q9 3 17 -1.5t11 -13t-1.5 -16.5t-12.5 -11q-21 -7 -39 -12
q-10 -45 -34 -89t-58.5 -80t-80.5 -57t-95 -18q-62 3 -86 33q-34 41 -16 108q13 53 56 115q16 22 34 44q-12 0 -22 2q-30 8 -50 38q-22 36 8 108q25 60 73 118q51 63 99 85q29 14 54 9q30 -5 47 -34q8 -14 12.5 -30.5t7.5 -41.5t3 -26q1 -9 -4.5 -16t-14.5 -8.5t-16 4
t-9 14.5z" />
    <glyph glyph-name="quotesingle" unicode="'" horiz-adv-x="97" 
d="M50 727q0 -55 12 -133q1 -9 -4.5 -16t-14.5 -8.5t-16 4t-9 14.5q-12 81 -12 139q0 9 6.5 15.5t15.5 6.5t15.5 -6.5t6.5 -15.5z" />
    <glyph glyph-name="parenleft" unicode="(" horiz-adv-x="188" 
d="M152 721q-45 -65 -67 -159q-21 -93 -18 -201q3 -105 25 -201q23 -97 61 -167q5 -8 2.5 -17t-10.5 -13.5t-17 -2t-13 10.5q-42 76 -66 179q-24 100 -26 210q-3 114 20 213q23 101 73 174q5 7 14 8.5t16.5 -3.5t9 -14t-3.5 -17z" />
    <glyph glyph-name="parenright" unicode=")" horiz-adv-x="187" 
d="M1 0q49 61 76 154t32 201q4 103 -13 201.5t-51 171.5q-4 8 -1 16.5t11.5 12.5t17 1t12.5 -12q36 -77 54 -181.5t14 -211.5q-5 -113 -34 -212.5t-84 -168.5q-6 -7 -15 -8t-16 5t-8 15t5 16z" />
    <glyph glyph-name="asterisk" unicode="*" horiz-adv-x="423" 
d="M274 508l107 -68q8 -5 9.5 -13.5t-3.5 -16.5t-13.5 -9.5t-16.5 3.5l-120 75q-4 -59 -12 -116q-1 -9 -8.5 -14.5t-16.5 -4.5t-14.5 8.5t-4.5 16.5q7 49 11 100q-72 -34 -114 -51q-8 -4 -16.5 -0.5t-12 12t0 17t12.5 11.5q42 18 120 55l-115 74q-8 5 -9.5 14t3.5 16.5t14 9
t16 -3.5l107 -68q3 55 3 111q0 9 6.5 15.5t15.5 6.5t15.5 -6.5t6.5 -15.5q0 -62 -3 -125q65 31 113 49q9 3 17 -1t11.5 -12.5t-0.5 -16.5t-12 -12q-43 -16 -97 -40z" />
    <glyph glyph-name="plus" unicode="+" horiz-adv-x="317" 
d="M137 429q-2 49 -3 79q0 9 6.5 15.5t15.5 6.5t15.5 -6.5t6.5 -15.5q0 -27 3 -68l33 10l40 11q9 3 17 -1.5t10.5 -13.5t-2 -17t-13.5 -10l-40 -12l-42 -12q3 -55 3 -90q0 -9 -6.5 -15.5t-15.5 -6.5t-15.5 6.5t-6.5 15.5q0 32 -3 80q-45 -10 -81 -10q-9 0 -15.5 6.5
t-6.5 15.5t6.5 15.5t15.5 6.5q34 0 78 10z" />
    <glyph glyph-name="comma" unicode="," horiz-adv-x="134" 
d="M99 43q-3 -47 -14.5 -80t-41.5 -64q-7 -6 -16 -6t-15.5 6.5t-6.5 15.5t6 16q24 23 33 48.5t11 65.5q1 9 7.5 15t15.5 5.5t15 -7t6 -15.5z" />
    <glyph glyph-name="hyphen" unicode="-" horiz-adv-x="289" 
d="M30 330q21 2 99 12q64 9 104 9q9 0 15.5 -6.5t6.5 -15.5t-6.5 -15.5t-15.5 -6.5q-37 0 -98 -8q-95 -12 -101 -13q-9 -1 -16 5t-8 15t5 16t15 8z" />
    <glyph glyph-name="period" unicode="." horiz-adv-x="78" 
d="M43 22q0 -9 -6.5 -15.5t-15.5 -6.5t-15.5 6.5t-6.5 15.5t6.5 15.5t15.5 6.5t15.5 -6.5t6.5 -15.5z" />
    <glyph glyph-name="slash" unicode="/" horiz-adv-x="449" 
d="M414 693q-49 -93 -181 -325q-127 -224 -195 -360q-4 -8 -13 -11t-17 1t-11 13t1 17q65 129 197 360l181 325q4 8 12.5 11t16.5 -1.5t11 -13t-2 -16.5z" />
    <glyph glyph-name="zero" unicode="0" horiz-adv-x="474" 
d="M236 667q-52 -13 -88 -109t-40 -224t29 -217q33 -90 91 -95q48 -4 90 46q35 42 57 107q19 56 23.5 134t-10.5 158q-17 82 -55 135t-97 65zM228 711q5 2 11 1q41 -7 74.5 -29.5t56 -55.5t37.5 -70t24 -81q16 -86 11.5 -170t-25.5 -145q-25 -73 -65 -121q-57 -68 -128 -62
q-85 8 -128 123q-36 97 -32 234q4 135 43 238q45 119 119 137q1 1 2 1z" />
    <glyph glyph-name="one" unicode="1" horiz-adv-x="193" 
d="M158 691q0 -459 -4 -683q0 -10 -6.5 -16t-16 -6t-15.5 6.5t-6 15.5q4 224 4 683q0 9 6.5 15.5t15.5 6.5t15.5 -6.5t6.5 -15.5z" />
    <glyph glyph-name="two" unicode="2" horiz-adv-x="544" 
d="M243 191q-53 4 -108 -32q-31 -21 -46.5 -46.5t-10.5 -50.5q2 -11 9 -16q13 -8 32 1q21 10 46 37q35 37 71 97zM112 543q63 80 122 125q109 82 171 15q22 -23 27 -58.5t1 -67.5q-23 -156 -124 -339q63 -28 117 -83.5t88 -119.5q4 -8 1 -16.5t-11 -13t-16.5 -1.5t-13.5 11
q-31 60 -80.5 110.5t-106.5 73.5l-13 -22q-40 -63 -77 -103q-31 -33 -59 -47q-41 -19 -73 1q-25 15 -31 46q-7 42 15.5 78.5t61.5 62.5q36 24 78 35t78 2q100 180 122 331q4 23 0 50t-16 40q-36 38 -112 -20q-55 -42 -115 -118q-5 -7 -14 -8t-16.5 4.5t-8.5 14.5t5 17z" />
    <glyph glyph-name="three" unicode="3" horiz-adv-x="503" 
d="M121 593q11 22 41.5 49t65.5 47q40 22 74 26q45 5 71 -23q22 -26 7 -69q-10 -29 -37 -67q-22 -31 -84 -99l-6 -7q90 24 153 -36q75 -72 64 -166q-9 -82 -77 -156q-41 -44 -94.5 -74t-111 -38t-108.5 16q-9 4 -12 12.5t1 17t12.5 11.5t16.5 -1q59 -26 133 -0.5t131 86.5
q58 63 66 130q8 74 -51 130q-49 47 -123 22q-24 -8 -50 -23l-16 -10l-6 -3l-4 -2h-2q-1 -1 -5 -2t-7 1q-17 4 -17 21q0 5 2 9q1 3 3 6t6 8l20 23l50 55q59 66 80 94q24 34 31 56q7 19 1 25q-9 12 -32 9q-25 -3 -58 -21q-31 -17 -56 -39.5t-32 -35.5q-4 -9 -12.5 -12t-17 1
t-11.5 12.5t1 16.5z" />
    <glyph glyph-name="four" unicode="4" horiz-adv-x="537" 
d="M337 691q0 -26 -0.5 -103t0 -129.5t2.5 -103.5l5 -99q28 2 52 4q63 7 76 12q9 3 17.5 -1t11.5 -12.5t-1 -17t-12 -11.5q-20 -7 -87 -13q-25 -3 -54 -5q9 -137 9 -211q0 -9 -6.5 -15.5t-15.5 -6.5t-15.5 6.5t-6.5 15.5q0 74 -9 208q-20 -2 -40 -3q-79 -4 -133 -4
q-30 0 -49 1q-23 2 -32.5 6.5t-11.5 15.5v6v7q1 5 3 14l11 41l7 27q4 16 7 26t4 13q48 208 54 340q0 9 7 15t16 6t15 -7t6 -16q-6 -136 -56 -348q0 -3 -3 -13t-7.5 -26.5t-7.5 -28.5q-6 -21 -9 -34q17 -1 45 -1q54 0 132 4q20 1 40 3q-4 60 -6 100q-2 51 -2.5 103.5t0 131
t0.5 103.5q0 9 6.5 15.5t15.5 6.5t15.5 -6.5t6.5 -15.5z" />
    <glyph glyph-name="five" unicode="5" horiz-adv-x="424" 
d="M332 657q-9 0 -52.5 -1t-70.5 -2q-44 -1 -70 -3q-21 -2 -32 -5q-1 -5 -2 -12q-2 -17 -2 -49q-1 -16 -0.5 -35t1 -33.5t0.5 -17.5v-19v-28v-29l14 18q52 64 99 75q29 7 54 -0.5t43 -26t31 -40.5t22 -48q17 -49 24 -102q7 -54 3 -87q-7 -60 -35 -118t-77 -87
q-41 -22 -86 -21t-85 22q-42 21 -66 59.5t-18 86.5q1 9 8.5 14.5t16.5 4.5t14.5 -8.5t4.5 -16.5q-4 -32 12.5 -58.5t47.5 -42.5t66 -17t63 15q37 22 60.5 70.5t29.5 102.5q3 27 -3 76t-21 92q-37 102 -99 88q-32 -8 -75 -61l-29 -39q-8 -10 -12 -14q-3 -4 -6 -7
q-7 -5 -14 -6q-15 -2 -23 11q-2 4 -4 9q-1 6 -2 16q-2 14 -2 39v77q0 3 -0.5 17.5t-1 33.5t0.5 36q0 34 3 54q1 13 4 22q6 16 17 21q13 8 52 11q27 3 72 4q28 1 71 2t52 1t16 -6t7 -15t-6 -16t-15 -7z" />
    <glyph glyph-name="six" unicode="6" horiz-adv-x="443" 
d="M160 57q7 -5 14 -9q66 -39 116 -4q47 32 68 109q21 76 6 137q-15 57 -55 59q-56 3 -95 -64q-13 -23 -29 -71q-22 -67 -25 -157zM320 606q-19 63 -66 64q-21 0 -44 -13.5t-41 -40.5q-32 -48 -56.5 -131.5t-29.5 -169.5q-7 -133 36 -209q6 67 24 122q17 52 33 79
q53 90 135 86q38 -2 61.5 -27.5t33.5 -64.5q19 -73 -5 -159q-26 -93 -86 -134q-73 -51 -163 2q-67 39 -93 122q-25 83 -20 185q6 92 32 181t62 142q23 35 55.5 55t66.5 19q37 -1 65.5 -25.5t41.5 -70.5q3 -8 -1.5 -16.5t-13 -11t-17 2t-10.5 13.5z" />
    <glyph glyph-name="seven" unicode="7" horiz-adv-x="465" 
d="M55 526q4 52 5 91v26q-1 1 -4 6q-3 8 -4 14q-1 16 12 25q4 3 11 5q3 0 8 1h20q18 1 55 1q81 -1 88 0q32 4 85 9q33 4 52 5q12 1 18 2q5 0 7.5 -0.5t4.5 -0.5q9 -1 14 -10q5 -6 4 -14q0 -3 -1 -6t-3 -8q-2 -7 -8 -19l-27 -52l-29 -53q-15 -26 -17 -31q-35 -77 -61 -157
q23 -1 49 -2q9 0 15 -7t6 -16t-7 -15t-16 -6q-32 2 -60 2q-49 -168 -49 -316q0 -9 -6.5 -15.5t-15.5 -6.5t-15.5 6.5t-6.5 15.5q0 149 47 316q-34 0 -64 -3q-9 -1 -16 5t-8 15t5 16t15 8q38 3 81 3q28 90 67 175q2 5 18 34l29 53l22 43q-16 -2 -39 -4q-53 -6 -84 -10
q-10 -1 -95 0q-36 0 -53 -1v-2v-31q-1 -42 -5 -95q-1 -9 -8 -15t-16 -5t-15 8t-5 16z" />
    <glyph glyph-name="eight" unicode="8" horiz-adv-x="438" 
d="M405 621q1 -1 2 -3q5 -7 3.5 -16t-9.5 -14q-68 -47 -146 -141q60 -59 95 -132q16 -34 26 -69.5t13 -76t-11 -79.5q-15 -38 -47 -66q-55 -49 -125 -35q-48 10 -86 50q-30 31 -41 71q-11 41 -3 85t24.5 85.5t42.5 84.5q23 38 52 76q-7 5 -18 11q-33 21 -45 29
q-63 45 -56 98q6 46 50.5 80t101.5 46q58 13 109.5 -2.5t68.5 -66.5q2 -8 -1 -15zM228 412q-26 -35 -47 -69q-34 -57 -50.5 -106t-12 -93.5t33.5 -74.5q28 -29 62 -36q49 -11 87 23q31 28 39.5 70.5t-0.5 84t-30 86.5q-30 63 -82 115zM364 622q-9 29 -44 40t-83 0
q-47 -10 -80.5 -35.5t-36.5 -53.5q-4 -26 37 -56q10 -7 44 -27q13 -9 21 -14q74 90 145 141q-2 2 -3 5z" />
    <glyph glyph-name="nine" unicode="9" horiz-adv-x="462" 
d="M333 630q-6 5 -13 10q-64 42 -116 11q-49 -29 -75 -105q-25 -74 -13 -136q11 -58 50 -62q57 -6 100 58q13 21 33 69q26 68 34 155zM141 92q13 -65 61 -68q21 -1 45 11.5t44 37.5q34 45 63.5 127t39.5 168q15 132 -23 211q-10 -66 -32 -120q-20 -53 -37 -77
q-58 -87 -140 -78q-37 4 -59.5 31t-29.5 66q-15 74 15 159q31 91 93 129q76 46 163 -13q64 -42 85 -126.5t9 -186.5q-11 -91 -42.5 -178.5t-70.5 -137.5q-25 -33 -58.5 -51t-67.5 -16q-38 3 -65 29.5t-37 72.5q-1 9 3.5 17t13.5 9.5t17 -3t10 -13.5z" />
    <glyph glyph-name="colon" unicode=":" horiz-adv-x="130" 
d="M95 450q0 -9 -6.5 -15.5t-15.5 -6.5t-15.5 6.5t-6.5 15.5t6.5 15.5t15.5 6.5t15.5 -6.5t6.5 -15.5zM87 68q0 -9 -6.5 -15.5t-15.5 -6.5t-15.5 6.5t-6.5 15.5t6.5 15.5t15.5 6.5t15.5 -6.5t6.5 -15.5z" />
    <glyph glyph-name="semicolon" unicode=";" horiz-adv-x="100" 
d="M57 49q-6 -44 -15 -65q-13 -30 -44 -55q-7 -6 -16 -5t-15 8t-5 16t8 15q23 19 31 38q7 15 12 54q1 9 8.5 14.5t16.5 4.5t14.5 -8.5t4.5 -16.5zM66 455q0 -9 -6.5 -15.5t-15.5 -6.5t-15.5 6.5t-6.5 15.5t6.5 15.5t15.5 6.5t15.5 -6.5t6.5 -15.5z" />
    <glyph glyph-name="less" unicode="&#x3c;" horiz-adv-x="302" 
d="M247 486l-24 -28l-45 -52l-49 -59q-48 -59 -68 -85q-13 -18 -20 -30l-2 -4l2 -3q7 -8 21 -20q26 -23 69 -56q83 -63 127 -90q7 -5 9 -14t-2.5 -16.5t-13.5 -9.5t-17 2q-45 28 -129 93q-44 33 -72 58q-16 15 -25 24q-13 14 -15 26q-1 8 3 18q2 6 7 14q8 14 23 34
q24 33 69 87l49 59l45 52l24 28q6 7 15 8t16 -5t8 -15t-5 -16z" />
    <glyph glyph-name="equal" unicode="=" horiz-adv-x="358" 
d="M70 457q42 2 113 13q84 12 116 15q9 1 16 -5t8 -15t-5 -16t-15 -8q-31 -3 -114 -15q-77 -11 -117 -13q-9 0 -16 6t-7 15t6 16t15 7zM76 351q110 0 221 18q9 1 16 -4.5t8.5 -14.5t-4 -16t-14.5 -9q-114 -18 -227 -18q-9 0 -15.5 6.5t-6.5 15.5t6.5 15.5t15.5 6.5z" />
    <glyph glyph-name="greater" unicode="&#x3e;" horiz-adv-x="339" 
d="M22 53q6 5 27 25l51 48l56 51q49 48 76 77q15 17 23 27q2 3 3 5l-2 2q-6 9 -18 23q-22 24 -63 63q-75 72 -116 105q-7 6 -8 15t5 16t15 8t16 -5q42 -34 118 -107q42 -40 65 -66q14 -15 22 -26q12 -16 12 -27q0 -9 -5 -18q-3 -6 -8 -14l-27 -31q-27 -30 -78 -79l-56 -51
l-50 -48q-21 -19 -26 -25q-7 -6 -16 -6t-15.5 6.5t-6.5 15.5t6 16z" />
    <glyph glyph-name="question" unicode="?" horiz-adv-x="391" 
d="M6 563q2 4 13 19t14 19l14 16q10 12 16 17l16 15q10 9 20 16t22 14q39 23 81 31q42 7 80 -4q41 -13 61 -49.5t13 -91.5q-4 -26 -14 -50.5t-29 -50.5l-31 -42q-13 -16 -39 -44l-35 -38q-52 -59 -72.5 -112t-1.5 -119q3 -8 -1.5 -16.5t-13 -11t-17 2t-10.5 13.5
q-10 34 -10.5 67t6.5 59t21.5 54t29.5 48t36 44q11 13 36 41l38 42q12 14 28 36t24 42t11 41q11 76 -44 93q-24 8 -58.5 2t-66.5 -25l-18 -11q-9 -6 -18 -14l-12 -12q-5 -5 -14.5 -16t-12 -14.5t-14 -18.5t-14.5 -18q-5 -8 -14 -9t-16.5 4.5t-8.5 14.5t5 16zM144 7
q0 -9 -6.5 -15.5t-15.5 -6.5t-15.5 6.5t-6.5 15.5t6.5 15.5t15.5 6.5t15.5 -6.5t6.5 -15.5z" />
    <glyph glyph-name="at" unicode="@" horiz-adv-x="756" 
d="M418 480q-24 28 -57 17q-42 -14 -83 -72q-40 -58 -51 -118q-11 -58 14 -80q18 -16 37 -9q21 7 45 36q32 39 66 112q15 33 24 80q1 2 1 4v6q0 4 1 8q0 10 3 15v1zM424 338q-33 -71 -68 -113q-31 -37 -63 -49q-43 -15 -80 17q-45 39 -30 122q13 69 60 136q50 70 104 88
q72 23 118 -48q7 -11 0 -23q1 -4 2 -10q1 -9 0 -26v-65q2 -90 39 -128q13 -13 27 -13q27 0 46 26q20 28 32 78q10 44 11.5 95.5t-4.5 73.5q-23 113 -103 155q-73 38 -172 10q-98 -28 -176 -108t-95 -184q-11 -66 2 -124t45 -99.5t77 -70t99 -42.5q53 -15 111 -11t110 21.5
t99 55.5t77 91q4 8 13 10.5t17 -2t10.5 -13.5t-2.5 -17q-34 -60 -87 -103t-112 -63t-123.5 -24t-123.5 13q-61 15 -112 48t-88.5 80.5t-52.5 114t-3 143.5q19 117 106.5 206t196.5 120q116 33 204 -13q99 -51 127 -186q6 -27 4.5 -82.5t-12.5 -104.5q-14 -59 -39 -93
q-33 -46 -82 -45q-33 1 -59 27q-42 43 -50 129z" />
    <glyph glyph-name="A" unicode="A" horiz-adv-x="547" 
d="M126 186q134 36 251 48l-87 278q0 1 -4 14l-11 33q-6 21 -11 39l-11 34l-4 -11q-19 -50 -39 -111q-49 -150 -84 -324zM117 137q-13 -68 -23 -136q-2 -9 -9 -14.5t-16 -4t-14.5 8.5t-4.5 16l19 117l-27 -9q-9 -3 -17 1.5t-11 13t1.5 16.5t12.5 11l50 15q37 187 90 352
q20 63 40 113q11 29 19 45q5 9 9 15q3 5 7 7q13 9 26 2q4 -2 7 -6q1 -2 2 -3.5t1 -3.5l3 -6q2 -7 6 -19l18 -57q6 -18 12 -38.5t10 -33t4 -13.5l89 -288q42 3 83 3q9 0 15.5 -6.5t6.5 -15.5t-6.5 -15.5t-15.5 -6.5q-34 0 -69 -2q35 -104 68 -185q4 -8 0.5 -16.5t-12 -12
t-17 0t-11.5 12.5q-36 85 -73 197q-125 -12 -273 -54z" />
    <glyph glyph-name="B" unicode="B" horiz-adv-x="428" 
d="M94 385q53 35 105 86q42 41 66 78q26 38 27 62q1 19 -10 28q-12 9 -36 11q-48 3 -95 -17q-32 -14 -74 -51l-1 -1q1 -110 1 -205q9 5 17 9zM201 412q74 1 133 -27q46 -21 63 -55q22 -42 -1 -93q-34 -75 -153 -148q-70 -43 -173 -87q-2 -8 -8.5 -13t-14.5 -5q-9 0 -15 7
t-6 16v2q-2 8 1 15q9 267 4 655q0 9 6.5 15.5t15.5 6.5t15.5 -6.5t6.5 -15.5v-41q30 23 58 35q57 24 116 20q38 -2 60 -20q29 -22 27 -64q-2 -36 -34 -85q-27 -40 -72 -84zM116 347q-22 -14 -40 -23q0 -145 -4 -273q85 37 148 76q108 67 136 128q14 32 3 54q-11 21 -44 36
q-30 15 -69 20.5t-67 1.5q-30 -3 -63 -20z" />
    <glyph glyph-name="C" unicode="C" horiz-adv-x="409" 
d="M258 557q-11 55 -29 80t-36 26t-42.5 -22t-47.5 -75q-45 -101 -57 -228q-11 -112 19 -203q37 -113 123 -113q44 0 71 23q34 29 57 111q14 51 25 135q1 9 8.5 14.5t16.5 4.5t14.5 -8.5t4.5 -16.5q-12 -86 -27 -141q-26 -95 -71 -133q-38 -33 -99 -33q-64 0 -104 40
t-61 103q-32 101 -21 221q13 133 61 242q26 59 60.5 92t72.5 31q39 -2 66 -40t40 -102q1 -9 -4 -16.5t-14 -9t-16.5 3.5t-9.5 14z" />
    <glyph glyph-name="D" unicode="D" horiz-adv-x="428" 
d="M67 42q58 32 113 84q53 50 95 113q52 78 75 158q22 81 6 152q-10 51 -46 76.5t-87 27.5q-83 3 -151 -45q3 -327 -5 -566zM28 577q-9 0 -15 6q-7 6 -7 15t6 16q7 8 16 15q-1 25 -1 51q0 9 6.5 15.5t15.5 6.5t15.5 -6.5t6.5 -15.5v-21q73 41 153 38q65 -3 113 -37t63 -101
q17 -83 -8 -172q-24 -88 -80 -172q-54 -81 -125 -142q-72 -62 -147 -92q-8 -4 -16.5 -0.5t-11.5 12.5q-4 8 -1 16t11 12q9 237 6 556z" />
    <glyph glyph-name="E" unicode="E" horiz-adv-x="442" 
d="M51 660q1 9 2 16q1 9 8 15t16 5t15 -8t5 -16l-1 -7q65 8 218 42q9 2 16.5 -2.5t9.5 -13.5t-2.5 -16.5t-13.5 -9.5q-167 -37 -232 -45q-13 -147 -20 -292v-23q153 49 196 59q9 3 16.5 -2t10 -14t-2.5 -16.5t-14 -9.5q-31 -8 -208 -63q-2 -76 0 -131q1 -44 5 -72
q4 -26 9 -34l5 -1q11 -2 30 0q34 3 94 20q41 12 101 32q58 19 69 21q9 3 16.5 -2t10 -14t-2.5 -16.5t-14 -9.5l-65 -21q-74 -24 -103 -32q-64 -18 -102 -22q-25 -3 -42 0q-24 5 -35 21q-10 16 -15 52q-4 30 -5 77q-3 75 3 203q7 151 18 287q-13 5 -14 19q-1 9 4.5 15.5
t13.5 8.5z" />
    <glyph glyph-name="F" unicode="F" horiz-adv-x="368" 
d="M42 588q-8 -1 -15.5 3.5t-9.5 12.5q-3 9 1.5 17t13.5 10l10 3q-1 23 -1 47q0 9 6.5 15.5t15.5 6.5t15.5 -6.5t6.5 -15.5v-35q134 38 248 63q9 1 17 -3.5t9.5 -13.5t-3 -17t-13.5 -10q-139 -31 -257 -64q1 -118 1 -219q96 33 213 59q9 1 17 -3.5t9.5 -13.5t-3 -17
t-13.5 -10q-124 -26 -223 -62q-1 -176 -7 -328q0 -9 -7 -15t-16 -6t-15 7t-6 16q5 146 6 312q-12 2 -16 14q-4 8 -0.5 16.5t12.5 11.5l5 2q0 103 -1 223z" />
    <glyph glyph-name="G" unicode="G" horiz-adv-x="454" 
d="M376 305q-15 -3 -42 -9q-16 -4 -135 -36l-152 -41q19 -138 108 -187q46 -25 90 6q41 30 77 101q30 59 46 124q6 24 8 42zM290 568q-19 57 -41.5 78t-43.5 17q-24 -5 -52 -35q-27 -28 -54 -81q-27 -54 -43 -129q-16 -76 -13 -151v-4l144 40q91 25 137 35q30 8 47 10
q11 2 17 2h9q7 -2 13 -6q9 -7 11 -22q0 -8 -1 -19q-2 -21 -9 -51q-18 -70 -50 -133q-41 -81 -91 -116q-66 -48 -137 -9q-106 58 -129 214q-29 -7 -40 -9q-9 -1 -16.5 4.5t-8.5 14.5t4.5 16.5t14.5 8.5q11 1 41 9v13q-3 80 14 161.5t46 140.5q64 125 138 139q44 8 78 -24
q35 -33 57 -100q3 -9 -1 -17t-13 -11t-17 1t-11 13z" />
    <glyph glyph-name="H" unicode="H" horiz-adv-x="435" 
d="M43 360l-15 -2q-9 -1 -16.5 4.5t-8.5 14.5t4.5 16.5t14.5 8.5l20 3v118v156q0 9 6.5 15.5t15.5 6.5t15.5 -6.5t6.5 -15.5v-85v-98v-85l221 38q-1 95 -2 214q0 9 6.5 15.5t15.5 6.5t15.5 -6.5t6.5 -15.5q1 -114 2 -206l25 4q9 1 16 -4.5t8.5 -14.5t-4 -16t-14.5 -9l-31 -5
q0 -222 -7 -404q0 -9 -7 -15t-16 -6t-15 7t-6 16q7 178 7 395q-196 -35 -220 -39q0 -229 -3 -383q0 -9 -6.5 -15.5t-15.5 -6.5t-15.5 6.5t-6.5 15.5q3 153 3 377z" />
    <glyph glyph-name="I" unicode="I" horiz-adv-x="276" 
d="M96 688q72 7 119 11q9 1 16 -5t8 -15t-5 -16t-15 -8q-43 -3 -102 -9q0 -396 -4 -601q72 11 105 14q9 1 16 -5t8 -15t-5 -16t-15 -8q-16 -2 -111 -15q-71 -10 -114 -13q-9 -1 -15.5 5.5t-7.5 15.5t5.5 15.5t15.5 7.5q32 2 74 8q4 206 4 602q-66 -6 -93 -9q-9 -1 -16 5
t-8 15t5 16t15 8q16 1 114 11q2 1 5 1h1z" />
    <glyph glyph-name="J" unicode="J" horiz-adv-x="458" 
d="M132 695q20 -1 39.5 -1.5t44 0.5t39 1.5t45.5 4t39.5 4t45 4.5t40.5 5q9 1 16 -5t8 -15t-5 -16t-15 -8q-103 -11 -125 -13q39 -143 57 -266.5t-1 -224.5q-14 -70 -63.5 -121t-115.5 -62.5t-137 27.5q-64 38 -73 103q-7 55 26 117q30 56 82.5 99t105.5 54q9 1 16.5 -4
t9 -14t-3.5 -16.5t-14 -9.5q-42 -8 -86 -45q-45 -37 -71 -85q-27 -49 -21 -90q6 -44 51 -71q55 -30 107 -22t92 49t51 99q19 97 1 216q-19 120 -58 263q-73 -5 -129 -1q-10 1 -16 7.5t-5 16t7.5 15.5t15.5 5z" />
    <glyph glyph-name="K" unicode="K" horiz-adv-x="467" 
d="M306 557q-75 -101 -195 -241q-1 -1 -13 -15.5t-19 -21.5l-3 -3q12 -5 31 -12q43 -14 120 -29q39 -9 86 -17l82 -14q35 -6 42 -7q9 -2 14 -9.5t3.5 -16.5t-9 -14t-16.5 -4q-7 2 -42 8l-82 14q-47 8 -87 17q-79 16 -124 31q-14 4 -25 9q-1 -131 -1 -225q0 -9 -6.5 -15.5
t-15.5 -6.5t-15.5 6.5t-6.5 15.5q0 103 1 257q-2 4 -3 9q-1 9 3 17q2 295 2 401q0 9 6.5 15.5t15.5 6.5t15.5 -6.5t6.5 -15.5q0 -114 -2 -356l8 9q120 139 193 239q6 7 15 8.5t16 -4t8.5 -14.5t-3.5 -16z" />
    <glyph glyph-name="L" unicode="L" horiz-adv-x="432" 
d="M87 682q-16 -144 -24 -343q-5 -122 -3 -200q1 -45 5 -71t8 -34q2 -1 6 -2q11 -2 30 0q35 4 94 21q38 10 101 31q57 20 69 22q9 3 16.5 -2t10 -14t-2.5 -16.5t-14 -9.5q-10 -3 -65 -21q-63 -22 -103 -33q-64 -18 -102 -22q-25 -2 -42 1q-24 5 -35 21q-9 16 -14 52
q-5 30 -6 76q-3 72 3 203q9 215 24 345q1 9 8 15t16 5t15 -8t5 -16z" />
    <glyph glyph-name="M" unicode="M" horiz-adv-x="637" 
d="M40 6q-7 91 -4 231q5 218 5 228v17q0 16 -0.5 31.5t0.5 37.5q0 34 1 53q1 13 2 20q1 5 3 9q5 12 16 15q7 2 12 0.5t7 -3.5l3 -3l4 -4q1 -3 3 -6q2 -5 6 -14q5 -15 15 -41q4 -13 10 -29.5t9.5 -27.5t5.5 -14q44 -120 105 -230q10 -17 28 -45l4 -6l11 30l39 128l62 218
q19 72 20 73q5 16 9 25q3 6 6 10q10 12 24 10q8 -2 13 -8q2 -2 3 -4t1 -4q1 -1 1 -2q0 -2 1 -5q1 -6 3 -16l8 -50l18 -106q36 -213 132 -511q3 -9 -1.5 -17t-13 -11t-16.5 1.5t-11 12.5q-100 312 -134 517l-15 94l-6 -21l-62 -218l-39 -130l-16 -44q-4 -9 -6 -15
q-5 -9 -10 -14q-10 -9 -23 -4q-5 2 -9 5.5t-10 10.5q-8 9 -19 27q-20 29 -30 47q-63 114 -109 236q-1 4 -12 34q0 -12 0.5 -25.5t0.5 -22.5v-11q0 -1 -5 -229q-3 -137 4 -226q1 -9 -5 -16t-15 -8t-16 5t-8 15z" />
    <glyph glyph-name="N" unicode="N" horiz-adv-x="479" 
d="M31 4q-3 39 -1 92q0 10 1.5 40.5t1.5 46.5q0 12 2 142v17v34v34q1 32 4 52q1 12 3 20q5 15 14 22q9 5 20 2q4 -1 8 -4q3 -3 7 -8q6 -6 14 -18q13 -20 33 -55q11 -17 22 -37l19 -34q7 -12 8 -13q75 -118 155 -218l39 -45l19 -20q2 14 2 34q1 20 0.5 32t-1 26t-0.5 16
q-1 62 -3 171t-3.5 200t-1.5 171q0 9 6.5 15.5t15.5 6.5t15.5 -6.5t6.5 -15.5q0 -80 1.5 -171t3.5 -200t3 -171q0 -1 0.5 -15.5t1 -27t-0.5 -32.5q0 -30 -5 -49q-3 -13 -8 -21q-8 -14 -22 -17q-8 -2 -17 2q-3 1 -7 4l-12 10q-11 10 -27 29q-24 26 -40 46q-85 107 -159 222
q0 2 -7.5 14.5t-19 33.5t-22.5 38l-20 34q0 -10 -1 -24v-35v-32v-17q-2 -130 -2 -142q0 -17 -1.5 -47.5t-1.5 -41.5q-2 -51 1 -86q1 -10 -5 -16.5t-15.5 -7.5t-16 5t-7.5 15z" />
    <glyph glyph-name="O" unicode="O" horiz-adv-x="453" 
d="M215 674q-52 -13 -88 -109t-40 -224t29 -217q33 -90 91 -95q48 -4 90 46q35 42 57 107q19 56 23.5 134t-10.5 158q-17 82 -55 135t-97 65zM207 718q5 2 11 1q41 -7 74.5 -29.5t56 -55.5t37.5 -70t24 -81q16 -86 11.5 -170t-25.5 -145q-25 -73 -65 -121q-57 -68 -128 -62
q-85 8 -128 123q-36 97 -32 234q4 135 43 238q45 119 119 137q1 1 2 1z" />
    <glyph glyph-name="P" unicode="P" horiz-adv-x="400" 
d="M75 626q5 -149 6 -335q83 23 143 61q51 33 83 71q46 54 45 108q-1 57 -39 89t-97 38q-41 4 -79 -5t-62 -27zM32 584q-5 0 -10 2q-8 3 -11.5 11.5t0.5 17.5q7 16 19 29l-1 32q0 9 6 16t15 7t16 -6t7 -15v-2q65 34 147 26q72 -7 123 -49.5t53 -119.5q2 -72 -55 -138
q-37 -43 -93 -79q-69 -46 -167 -71q1 -91 1 -235q0 -9 -6.5 -15.5t-15.5 -6.5t-15.5 6.5t-6.5 15.5q0 143 -1 232q-7 5 -8 13q-4 14 8 23q-1 170 -5 306z" />
    <glyph glyph-name="Q" unicode="Q" horiz-adv-x="478" 
d="M320 108q20 33 34 74q19 56 23.5 134t-10.5 158q-17 82 -55 135t-97 65q-52 -13 -88 -109t-40 -224t29 -217q33 -90 91 -95q46 -4 86 42q-40 48 -80 103q-5 7 -3.5 16t8.5 14.5t16 4t15 -8.5q36 -49 71 -92zM322 37q-54 -58 -119 -52q-85 8 -128 123q-36 97 -32 234
q4 135 43 238q45 119 119 137q1 1 2 1q5 2 11 1q41 -7 74.5 -29.5t56 -55.5t37.5 -70t24 -81q16 -86 11.5 -170t-25.5 -145q-19 -54 -47 -96q47 -54 93 -100q6 -7 6 -16t-6.5 -15.5t-15.5 -6.5t-16 6q-44 45 -88 97z" />
    <glyph glyph-name="R" unicode="R" horiz-adv-x="500" 
d="M96 607q0 -224 -1 -355l64 71q3 4 10 11l60 68q21 24 46.5 64t36.5 76q15 50 -16 86t-83 30q-57 -6 -117 -51zM119 212h16q43 -2 119 -1q49 1 122 3t83 2q9 0 15.5 -6.5t6.5 -15.5t-6.5 -15.5t-15.5 -6.5q-10 0 -83 -2t-121 -3q-78 -1 -122 1q-23 0 -39 2l-2 -164
q0 -10 -6.5 -16t-16 -6t-15.5 6.5t-6 15.5q4 216 4 658q0 9 6.5 15.5t15.5 6.5t15.5 -6.5t6.5 -15.5v-3q56 35 113 41q74 8 120.5 -46t24.5 -126q-4 -14 -10 -28l-12 -26q-5 -12 -15 -28l-15 -23q-5 -8 -18 -25l-18 -22q-4 -5 -19.5 -23t-18 -20.5t-20.5 -22.5l-17 -19z" />
    <glyph glyph-name="S" unicode="S" horiz-adv-x="442" 
d="M366 568q-9 46 -48 71t-91 24q-51 0 -90 -25.5t-47 -66.5q-11 -53 34 -117q12 -18 78 -78q80 -73 115 -110q65 -70 84 -123q26 -74 -28 -123q-22 -20 -48 -30t-56.5 -10.5t-51 1.5t-50.5 7q-73 13 -128 36q-8 3 -11.5 11.5t0 17t12 12t17.5 -0.5q49 -21 118 -32
q38 -7 63.5 -8.5t55 4.5t49.5 24q33 30 16 76q-16 45 -75 108q-33 36 -112 108q-68 62 -84 84q-56 80 -42 151q13 61 65 94.5t116 33.5q64 1 116.5 -32.5t66.5 -98.5q1 -8 -4 -16t-13.5 -9.5t-16.5 3.5t-10 14z" />
    <glyph glyph-name="T" unicode="T" horiz-adv-x="400" 
d="M12 644q52 8 174 34q125 27 178 34q9 1 16.5 -4.5t8.5 -14.5t-4.5 -16.5t-14.5 -8.5q-61 -8 -157 -29q0 -475 -3 -642q0 -10 -6.5 -16t-16 -6t-15.5 6.5t-6 15.5q3 171 3 633q-97 -21 -151 -30q-9 -1 -16 4.5t-8.5 14.5t4 16t14.5 9z" />
    <glyph glyph-name="U" unicode="U" horiz-adv-x="457" 
d="M107 679q-28 -292 41 -520q18 -60 41 -94q31 -47 68 -45q42 2 76 78q32 71 52 196q15 101 20 209t1 164q-1 10 5 16.5t15.5 7.5t16 -5t7.5 -15q4 -59 -1 -169t-21 -215q-20 -130 -55 -207q-45 -100 -114 -104q-62 -4 -107 64q-26 39 -46 107q-72 237 -43 536q1 9 8 15
t16 5t15 -8t5 -16z" />
    <glyph glyph-name="V" unicode="V" horiz-adv-x="452" 
d="M87 665q50 -290 97 -491l21 -89l28 96l29 99l33 111l28 96q19 60 36 109l34 98q4 8 12 12t16.5 0.5t12.5 -11.5t1 -17l-35 -98q-17 -49 -35 -108l-29 -94l-32 -110l-29 -99l-28 -99q-10 -32 -16 -49q-4 -10 -7 -16q-3 -5 -6 -8q-10 -12 -24 -8q-10 1 -15 15v1h-1v1l-1 4
l-3 14l-10 46l-22 94q-45 182 -99 493q-1 9 4 16.5t14 9t16.5 -3.5t9.5 -14z" />
    <glyph glyph-name="W" unicode="W" horiz-adv-x="709" 
d="M73 605q6 -40 11 -85.5t10 -102.5q4 -53 7 -86q9 -87 29 -227l32 96l71 214q11 32 42 110l26 62q6 14 10 21q2 5 4 8t4 5q10 9 23 5q12 -4 20 -20q4 -8 9 -22q8 -22 16 -60q6 -25 13 -60l7 -35q41 -174 89 -300q12 -34 24 -60l4 -9q3 21 6 51q2 22 4 47.5t3.5 41.5
t1.5 18q14 118 40 237q29 130 74 255q3 8 11.5 12t17 1t12.5 -11.5t1 -17.5q-46 -124 -74 -249q-25 -113 -38 -231q0 -3 -1.5 -19t-3.5 -41.5t-4 -46.5l-8 -70q-3 -16 -5 -24q-1 -6 -3 -10q-1 -4 -3 -6q-4 -7 -11 -9q-16 -7 -30 7q-6 5 -12 15q-10 14 -22 40l-26 63
q-48 129 -89 306l-7 35q-7 35 -13 60q-6 24 -11 40l-18 -46q-29 -72 -41 -107l-71 -214l-39 -118l-13 -37l-4 -11q-1 -2 -1.5 -3.5t-0.5 -2.5l-2 -2q-1 -2 -3 -4q-7 -7 -17 -6t-16 9q-1 1 -2 4q-1 1 -2 3q-1 3 -2 7l-5 18q-6 24 -7 31q-24 168 -33 253q-3 29 -7.5 85t-9 101
t-11.5 84q-1 9 4 16.5t14 9t16.5 -3.5t9.5 -14z" />
    <glyph glyph-name="X" unicode="X" horiz-adv-x="476" 
d="M81 701q29 -53 95 -191l61 -128l162 319q4 8 13 11t17 -1t11 -13t-1 -17l-178 -348l6 -12q44 -83 173 -303q5 -8 2.5 -16.5t-10.5 -13.5t-16.5 -2.5t-13.5 10.5q-124 211 -166 290l-163 -300q-4 -8 -13 -10.5t-17 2t-10.5 13.5t2.5 17l177 326q-10 19 -76 158
q-58 122 -93 187q-5 8 -2.5 17t10.5 13.5t17 2t13 -10.5z" />
    <glyph glyph-name="Y" unicode="Y" horiz-adv-x="449" 
d="M92 696q1 -7 2 -22.5t2.5 -41t3.5 -45.5q8 -97 20 -169q17 -97 39 -140q12 -21 24 -27q8 -5 21 1q14 8 35 45q18 33 40 87l22 62q12 32 22 64l12 37q5 13 17 56q11 36 20 57q0 1 2 7q2 8 4 12q4 9 9 14q8 9 20 7q11 -1 17 -11q4 -5 5 -13v-9q1 -10 1 -27q0 -27 -1 -74
q0 -1 -4 -118q-3 -94 -3 -438q0 -9 -6.5 -15.5t-15.5 -6.5t-15.5 6.5t-6.5 15.5q0 345 3 440v18q1 18 2 42t1 47l-7 -24l-12 -38l-22 -65l-23 -62q-23 -57 -43 -93q-27 -48 -53 -61q-32 -18 -62 -2q-23 12 -41 45q-27 51 -45 154q-12 71 -20 172q-1 21 -3 45.5t-3 40
t-2 21.5q-1 9 4.5 16.5t14.5 8.5t16.5 -4.5t8.5 -14.5z" />
    <glyph glyph-name="Z" unicode="Z" horiz-adv-x="503" 
d="M162 699q38 -1 107.5 1.5t98.5 2.5q4 0 26 0.5t35 0.5h34q7 0 12 -1q4 0 6 -1q4 -1 7 -3q11 -8 10 -21l-3 -10q-1 -2 -3 -3q-1 -3 -4 -6l-14 -16l-41 -45l-28 -30l-25 -28q-10 -10 -12 -13q-121 -136 -191 -241q-57 -86 -77 -146q-22 -64 0 -91q5 -6 22 -11q17 -4 43 -6
q15 -1 78 0q75 1 199 24q9 1 16.5 -4t9 -14t-3.5 -16.5t-14 -9.5q-128 -23 -207 -24q-64 -1 -81 0q-30 2 -52 8q-30 8 -44 25q-38 46 -8 134q22 64 83 156q71 106 193 246q3 2 12 13l26 28l29 30l29 32q-13 0 -35.5 -0.5t-26.5 -0.5q-29 0 -99 -2.5t-107 -1.5q-10 0 -16 6.5
t-6 16t6.5 15.5t15.5 6z" />
    <glyph glyph-name="bracketleft" unicode="[" horiz-adv-x="614" 
d="M321 436q18 102 38 156q23 66 56 97q45 42 104 22q68 -24 67 -115q0 -8 -7 -32q-5 -21 -16 -56l-47 -157l-48 -152l-16 -50l-5 -15l-2 -4v-2q-1 -3 -4 -6q-11 -14 -28 -8q-7 2 -13 8l-6 6l-1 2q-47 31 -128 72q-7 4 -32.5 16.5t-37.5 19.5l-34 18q-20 12 -36 23t-31 23
q-79 65 -72 125q3 29 24 48.5t52 29.5q35 8 73 6.5t79.5 -21.5t70.5 -54zM307 380q-32 56 -90 76.5t-107 5.5q-41 -12 -44 -40q-5 -37 56 -86q13 -11 28 -21t34 -21t31 -17l37 -19l33 -16q80 -42 127 -72l14 42l48 152l47 156l16 55l5 21q1 60 -37 73q-34 12 -60 -12
q-25 -24 -45 -80q-11 -31 -20 -69t-16 -78.5t-10 -52.5q-2 -9 -9.5 -13.5t-16.5 -2.5q-11 2 -15 12q-4 3 -6 7z" />
    <glyph glyph-name="backslash" unicode="\" horiz-adv-x="437" 
d="M51 720q62 -116 176 -350l175 -349q5 -8 2 -16.5t-11 -13t-16.5 -1.5t-12.5 11q-61 114 -175 348l-176 351q-5 8 -2 16.5t11 13t16.5 1.5t12.5 -11z" />
    <glyph glyph-name="bracketright" unicode="]" horiz-adv-x="529" 
d="M66 184q-13 24 -20 49q-14 47 -12.5 121t17.5 148q18 81 51 144t83 89q8 4 16.5 1t13.5 -11q7 -15 -5 -26q67 0 125 -51q39 -34 67 -84t40 -102q19 -90 -11 -193l54 -39q8 -5 9.5 -14t-3.5 -16.5t-14 -9t-16 3.5l-45 31q-43 -105 -123 -142q-11 -5 -24 -9q2 -31 2 -60
q0 -9 -6.5 -15.5t-15.5 -6.5t-15.5 6.5t-6.5 15.5q0 27 -1 55q-48 2 -91 34q-23 17 -42 40l-17 -29q-5 -7 -14 -9.5t-16.5 2.5t-10 14t2.5 17zM231 429l162 -131q20 84 5 154q-9 47 -33 90q-25 43 -59 73q-46 40 -98 40q1 -9 23 -226zM238 366l4 -31q21 -164 25 -215
q4 1 8 3q68 32 104 130zM197 342q-34 -75 -80 -157q19 -28 44 -47q31 -22 62 -25q-4 52 -25 216zM183 423q0 6 4 11q-19 190 -22 213l-14 -6q-37 -56 -57 -149q-15 -69 -17 -138q-1 -70 11 -109q2 -6 4 -13q61 112 91 191z" />
    <glyph glyph-name="asciicircum" unicode="^" horiz-adv-x="285" 
d="M9 576q3 4 19 30l31 53l32 50q8 11 14 18l7 7q8 6 16 6t14 -4l3 -3l2 -2q2 -2 4 -5l11 -16l32 -47q45 -67 54 -83q5 -8 2.5 -17t-10.5 -13.5t-17 -2t-13 10.5q-7 14 -52 80l-31 46l-30 -48l-32 -52q-16 -28 -20 -34q-5 -7 -14 -8.5t-16.5 3.5t-9 14t3.5 17z" />
    <glyph glyph-name="underscore" unicode="_" horiz-adv-x="472" 
d="M31 -113q100 8 382 50q9 1 16 -4.5t8.5 -14.5t-4 -16t-14.5 -9q-283 -42 -384 -50q-9 -1 -16 5t-8 15t5 16t15 8z" />
    <glyph glyph-name="grave" unicode="`" horiz-adv-x="183" 
d="M53 758q64 -94 92 -130q5 -7 4 -16t-8.5 -14.5t-16.5 -4.5t-15 9q-29 39 -92 132q-5 7 -3.5 16t9 14t16.5 3.5t14 -9.5z" />
    <glyph glyph-name="a" unicode="a" horiz-adv-x="407" 
d="M323 328l-13 -36q-36 -99 -88 -177q-40 -59 -77 -81q-54 -32 -100 4q-50 38 -48 124q2 77 42 158q42 85 112 138.5t154 40.5q9 -2 14 -8.5t5 -14.5q4 1 9 0q9 -1 14 -8q2 -2 4 -5q3 -5 5 -16q1 -6 3 -17q2 -17 4 -45q3 -34 5 -74q0 -6 2 -132q2 -117 4 -171q0 -9 -6 -16
t-15 -7t-16 6t-7 15q-2 53 -4 173q-2 124 -2 130q0 9 -1 19zM299 455q-65 10 -124 -34t-96 -120q-36 -74 -38 -140q-1 -64 30 -89q23 -17 51 0q30 17 63 67q50 74 83 167t34 98q3 11 4 37q0 10 1 15q-4 -1 -8 -1z" />
    <glyph glyph-name="b" unicode="b" horiz-adv-x="379" 
d="M66 35q86 25 149 94t81 158q9 44 1 83q-8 44 -36 47q-33 5 -72 -37q-37 -39 -71 -114q-31 -69 -46 -137q-4 -19 -6 -35v-7v-40v-12zM59 652q1 -43 3 -122.5t3 -144.5t1 -123v-6l12 29q36 79 79 125q54 58 110 51q58 -8 73 -82q10 -48 0 -100q-22 -107 -100 -188
t-183 -104q-9 -1 -17 3.5t-10 13.5v1q-3 2 -5 7q-1 1 -2 3v3q-7 30 -1 78v166q0 58 -1 123t-3 144t-3 123q0 9 6 15.5t15.5 6.5t16 -6t6.5 -16z" />
    <glyph glyph-name="c" unicode="c" horiz-adv-x="372" 
d="M223 452q-48 -6 -95 -70q-46 -63 -68 -148q-22 -86 -7 -143q15 -56 65 -59q69 -5 131 83q37 53 64 119q3 9 11.5 12.5t17 0t12 -12t-0.5 -16.5q-28 -71 -68 -129q-76 -108 -171 -101q-41 3 -67 27.5t-37 64.5q-18 68 7 165q25 93 76 163q59 80 124 88q9 1 16.5 -4.5
t8.5 -14.5t-4.5 -16.5t-14.5 -8.5z" />
    <glyph glyph-name="d" unicode="d" horiz-adv-x="366" 
d="M334 658q0 -109 -1.5 -326.5t-1.5 -326.5q0 -9 -6.5 -15.5t-15.5 -6.5t-15.5 6.5t-6.5 15.5q0 82 1 190l-5 -10q-29 -58 -73 -104q-29 -31 -59.5 -47t-68.5 -10q-44 7 -65.5 39t-23.5 77q-3 80 45 180q49 101 115 148q72 51 136 16q1 98 1 174q0 9 6.5 15.5t15.5 6.5
t15.5 -6.5t6.5 -15.5zM281 437q-45 36 -103 -5q-57 -40 -101 -131q-43 -89 -40 -159q3 -67 51 -74q25 -4 45.5 7t44.5 36q40 42 65 94q27 53 38 109q2 8 7 13q1 72 1 106q-4 1 -8 4z" />
    <glyph glyph-name="e" unicode="e" horiz-adv-x="382" 
d="M277 392q0 1 -1 1q-2 8 -10 17q-19 24 -47 37q-31 16 -58 9q-33 -8 -57 -49q-32 -55 -39 -135l85 45q57 31 92 52q19 11 29 19zM20 200q-3 -1 -5 -2q-9 -4 -17.5 -0.5t-12 12t0 17t11.5 11.5q7 3 22 11q4 106 47 180q33 57 84 69q43 11 88 -11q38 -18 63 -49
q12 -15 17 -29q7 -20 0 -35q-3 -6 -10 -13q-4 -4 -11 -9l-33 -21l-92 -53l-109 -57q2 -44 12 -80q14 -48 42 -76.5t61.5 -35t68.5 10t64 56.5q5 7 14 8.5t16.5 -3.5t9 -14t-3.5 -17q-36 -49 -82.5 -71t-94.5 -12q-47 9 -83.5 46t-53.5 96q-10 33 -13 71z" />
    <glyph glyph-name="f" unicode="f" horiz-adv-x="356" 
d="M307 676q-57 23 -97 -18q-35 -37 -52 -112q-10 -49 -14 -121q100 19 157 28q9 1 16.5 -4.5t9 -14t-4 -16t-13.5 -9.5q-58 -9 -166 -29q-1 -187 33 -383q1 -9 -4 -16.5t-14 -9t-16.5 3.5t-9.5 14q-33 194 -33 382l-64 -12q-9 -1 -16.5 4t-9 14t3.5 16.5t14 9.5l73 13
q3 83 16 140q18 86 63 132q60 63 144 28q9 -3 12.5 -11.5t0 -17t-12 -12t-16.5 0.5z" />
    <glyph glyph-name="g" unicode="g" horiz-adv-x="376" 
d="M291 387q-3 26 -7 51q-69 2 -139 -76q-50 -56 -73.5 -117.5t-21.5 -105t20 -69.5q23 -34 60 -13q56 31 105 152q38 94 56 178zM278 482q2 16 18 19q9 1 16.5 -4t9.5 -14q6 -34 10 -74q7 -8 5 -17l-2 -7q16 -142 7 -259q-9 -112 -41 -185q-40 -90 -114 -116
q-89 -31 -171 7q-8 4 -11.5 12.5t0.5 16.5t12.5 11.5t16.5 -0.5q66 -30 139 -5q56 19 88 92q29 66 37 171q4 59 2 129q-10 -30 -25 -66q-56 -136 -123 -174q-36 -19 -67 -11.5t-51 37.5q-25 36 -27.5 91.5t24.5 124.5q26 69 82 131q80 89 165 90z" />
    <glyph glyph-name="h" unicode="h" horiz-adv-x="424" 
d="M78 709q-1 -104 -0.5 -153.5t3 -152.5t3.5 -153q30 70 69 121q42 55 83 72q56 22 101 -26q48 -51 54 -200v-77q0 -20 -2.5 -72.5t-2.5 -58.5q0 -9 -7 -15t-16 -6t-15 7t-6 16q0 7 2.5 57.5t2.5 69.5v77q-5 133 -42 172q-25 26 -53 15q-30 -12 -64 -57
q-29 -39 -52.5 -88.5t-30.5 -75.5q-6 -26 -8 -53t-2 -61.5t-2 -58.5q-1 -7 -1 -11q-1 -4 -2 -6.5t-3 -5.5q-7 -8 -17 -8q-12 0 -18 9q-2 2 -3 5q-2 4 -2 11v10l-2 52q-4 78 -5 154q0 36 -4 215.5t-2 275.5q0 10 6.5 16t16 6t15.5 -6.5t6 -15.5z" />
    <glyph glyph-name="i" unicode="i" horiz-adv-x="115" 
d="M80 456v-452q0 -9 -6.5 -15.5t-15.5 -6.5t-15.5 6.5t-6.5 15.5v452q0 9 6.5 15.5t15.5 6.5t15.5 -6.5t6.5 -15.5zM74 590q0 -9 -6.5 -15.5t-15.5 -6.5t-15.5 6.5t-6.5 15.5t6.5 15.5t15.5 6.5t15.5 -6.5t6.5 -15.5z" />
    <glyph glyph-name="j" unicode="j" horiz-adv-x="151" 
d="M108 457q11 -172 10 -269q-2 -181 -37 -264q-37 -92 -145 -102q-9 -1 -16 5t-8 15t5 16t15 8q81 8 109 74q31 76 33 249q1 95 -10 266q-1 9 5.5 15.5t15.5 7.5t15.5 -5.5t7.5 -15.5zM113 587q0 -9 -6.5 -15.5t-15.5 -6.5t-15.5 6.5t-6.5 15.5t6.5 15.5t15.5 6.5
t15.5 -6.5t6.5 -15.5z" />
    <glyph glyph-name="k" unicode="k" horiz-adv-x="415" 
d="M243 391l-114 -134l-53 -60l-7 -9q10 -5 27 -11q35 -12 95 -25l67 -14q36 -7 67.5 -12.5t36.5 -6.5q9 -2 14 -9.5t3.5 -16.5t-9 -14t-16.5 -4q-5 1 -37 7l-68 13q-36 7 -68 14q-62 14 -99 27q-13 4 -23 8l-2 -133q0 -10 -6.5 -16t-16 -6t-15.5 6.5t-6 15.5q4 220 4 671
q0 9 6.5 15.5t15.5 6.5t15.5 -6.5t6.5 -15.5q0 -295 -1 -437l35 41l114 133q6 7 15 8t16 -5t8 -15t-5 -16z" />
    <glyph glyph-name="l" unicode="l" horiz-adv-x="124" 
d="M89 686q0 -467 -4 -699q0 -9 -6.5 -15.5t-15.5 -6.5t-15.5 6.5t-6.5 15.5q4 232 4 699q0 9 6.5 15.5t15.5 6.5t15.5 -6.5t6.5 -15.5z" />
    <glyph glyph-name="m" unicode="m" horiz-adv-x="620" 
d="M59 426q3 -29 13 -161l3 -43q15 56 33 103q23 60 47 96q32 48 68 52q42 4 67 -50q16 -36 26 -100q3 -20 5 -42q16 48 41 91q33 56 55 76q25 24 50 26q32 4 58 -26q10 -11 17 -36q6 -18 11 -50q8 -49 14 -131q1 -8 10 -136q5 -73 9 -95q1 -9 -4 -16.5t-14 -9t-16.5 3.5
t-9.5 14q-4 24 -9 100q-9 128 -10 136q-6 81 -14 127q-4 28 -9 45q-5 15 -9 20q-10 12 -20 11q-10 -2 -23 -15q-19 -17 -48 -66q-38 -64 -51 -137.5t-15 -177.5v-2q0 -2 -1 -6q-1 -3 -3 -6q-9 -11 -22 -9q-10 2 -15 11l-2 4l-1 5v1v1q0 2 -1 9v22v31v2q-1 13 -3 48
q-7 129 -13 170q-9 58 -23 88q-12 26 -23 25q-15 -1 -35.5 -32.5t-41.5 -86.5q-35 -92 -48 -167q-4 -19 -6 -65t-7 -72q-1 -3 -2 -5.5t-2 -4.5q-4 -6 -9 -9q-13 -6 -24 2q-5 3 -7 9q-2 3 -2 7q-2 6 -2 22q-1 7 -1.5 25.5t-0.5 24.5q-3 52 -4 75q-1 10 -1 15v4v3l-1 16
q-3 42 -5 71q-11 143 -13 161q-1 9 5 16t15 8t16 -5t8 -15zM86 62v-1v1zM42 60v1l-1 -1l1 -1v1z" />
    <glyph glyph-name="n" unicode="n" horiz-adv-x="414" 
d="M66 471q-5 -155 -2 -287q42 154 118 240q40 45 77 53q38 7 67 -23q41 -42 52 -140q4 -35 6 -109v-191q0 -9 -6.5 -15.5t-15.5 -6.5t-15.5 6.5t-6.5 15.5v189q-2 71 -6 107q-9 82 -39 113q-13 13 -27 10q-23 -4 -54 -39q-75 -85 -115 -250q-5 -24 -16 -114v-2v-3
q1 -3 1 -7q1 -24 -16 -33q-10 -6 -20 -2q-11 4 -15 15q-2 6 -2 15q1 4 1 7v4v1q-8 52 -11 133q-5 145 1 315q0 9 7 15t16 6t15 -7t6 -16z" />
    <glyph glyph-name="o" unicode="o" 
d="M177 494q8 5 17 2q53 -18 90 -60t52.5 -92.5t15.5 -105.5q0 -84 -36.5 -154t-103.5 -89q-78 -23 -133 45q-46 56 -57 151q-7 60 3 118.5t42.5 111t85.5 77.5q13 6 24 -4zM171 458q-60 -28 -88 -102q-27 -74 -17 -160q9 -84 47 -129q37 -44 87 -30q48 14 78 70.5t30 130.5
q0 76 -33 135.5t-95 80.5q-4 2 -8 5q0 -1 -1 -1z" />
    <glyph glyph-name="p" unicode="p" horiz-adv-x="371" 
d="M76 66q134 36 190 117q33 48 43 96.5t0.5 79t-28.5 44.5q-29 20 -70 -11q-56 -43 -103 -165q-25 -66 -32 -161zM73 482v-223q49 120 112 169q31 24 63 26q33 3 59 -15q50 -36 50.5 -116.5t-55.5 -165.5q-68 -98 -230 -138q-1 -95 -3 -180q0 -10 -6.5 -16t-16 -6
t-15.5 6.5t-6 15.5q4 212 4 643q0 9 6.5 15.5t15.5 6.5t15.5 -6.5t6.5 -15.5z" />
    <glyph glyph-name="q" unicode="q" horiz-adv-x="379" 
d="M300 410q-53 -13 -86 -26t-65 -38q-43 -34 -67.5 -72.5t-29 -71.5t2 -60t21.5 -43q31 -34 75 -10q61 34 105 158q18 51 44 163zM350 485v-49v-2q0 -382 -4 -592q0 -10 -6.5 -16t-16 -6t-15.5 6.5t-6 15.5q3 174 4 415l-8 -24q-51 -140 -126 -182q-37 -20 -70 -15
q-33 6 -58 33q-32 34 -38 86t23 114t92 111q29 22 63.5 38t55.5 22t66 17v28q0 9 6.5 15.5t15.5 6.5t15.5 -6.5t6.5 -15.5z" />
    <glyph glyph-name="r" unicode="r" horiz-adv-x="300" 
d="M65 317q30 68 80 115.5t116 54.5q9 1 16 -5t8 -15t-5 -16t-15 -8q-67 -7 -117 -71q-50 -65 -66 -145q-7 -32 -8.5 -65t0 -85.5t1.5 -68.5v-3v-2q-1 -2 -1 -4q-3 -9 -13 -13q-16 -7 -26 8q-2 2 -3 5q-1 2 -1 3v3q-1 4 -2 14q-1 11 -4 60q-3 36 -4 183q-1 84 1 159
q0 10 6.5 16t16 6t15.5 -6.5t6 -15.5q-1 -53 -1 -104z" />
    <glyph glyph-name="s" unicode="s" horiz-adv-x="339" 
d="M264 379q-11 43 -43.5 62.5t-71.5 15.5q-37 -4 -57.5 -25t-14.5 -48q7 -27 28 -54.5t60 -63.5q4 -3 18 -16t20 -18l17 -18l19 -20q7 -7 16 -18t16 -22l12 -20q22 -44 15 -79q-6 -35 -39 -55q-27 -16 -65.5 -17t-73.5 12q-39 14 -87 60q-7 6 -7 15.5t6 16t15.5 6.5
t15.5 -6q42 -40 71 -50q31 -11 59 -10q27 1 44 11q15 9 18 25q4 20 -12 51q-4 9 -9.5 17t-13.5 18t-13.5 16t-17.5 17l-16 16q-5 5 -20 19t-18 17q-27 25 -43.5 42.5t-34 45t-22.5 52.5q-12 53 23 87t87 40q52 5 99 -22.5t62 -87.5q3 -9 -2 -17t-13.5 -10.5t-16.5 2.5
t-10 13z" />
    <glyph glyph-name="t" unicode="t" horiz-adv-x="326" 
d="M185 690v-70v-69q54 11 94 18q9 1 16.5 -4t9 -14t-3.5 -16.5t-14 -9.5q-43 -7 -102 -19q0 -308 -4 -515q0 -9 -6.5 -15.5t-15.5 -6.5t-15.5 6.5t-6.5 15.5q4 205 4 506l-110 -22q-9 -1 -16.5 4t-9 14t3.5 16.5t14 9.5l118 23v148q0 9 6.5 15.5t15.5 6.5t15.5 -6.5
t6.5 -15.5z" />
    <glyph glyph-name="u" unicode="u" 
d="M81 466q-1 -22 -6 -106q-4 -67 -4 -105q1 -94 15 -150q12 -43 29 -59q16 -15 43 -3q16 7 35 46q17 36 34 94q24 83 38 176q2 9 5 61q2 22 3 32q1 8 2 12q1 3 1.5 5.5t2.5 5.5q3 6 9 9q10 5 20 1.5t15 -13.5q3 -7 3 -19q0 -4 -1 -13v-8q1 -21 0 -75q-2 -45 1 -71
q3 -28 8 -145q4 -90 11 -142q1 -9 -4.5 -16.5t-14.5 -8.5t-16.5 4.5t-8.5 14.5q-7 54 -11 146q-3 74 -4 96q-8 -34 -17 -64q-17 -62 -37 -102q-26 -52 -56 -66q-53 -24 -91 10q-27 25 -41 80q-16 62 -17 162q0 42 4 108q5 83 6 105q0 9 7 15t16 6t15 -7t6 -16z" />
    <glyph glyph-name="v" unicode="v" horiz-adv-x="386" 
d="M72 436q30 -182 67 -313l16 -50l9 21q22 52 56 146l39 103l34 95q13 37 16 46q4 8 12 12t16.5 0.5t12.5 -11.5t1 -17q-4 -9 -18 -46l-34 -94l-37 -104q-35 -94 -57 -147l-22 -49q-6 -10 -10 -16q-2 -4 -5 -7q-6 -6 -13 -8q-6 -1 -11 0.5t-7 3.5l-2 2l-4 4q0 1 -1 3
q0 1 -0.5 2t-1.5 4l-4 11l-11 32q-14 46 -16 52q-38 133 -69 317q-1 9 4 16.5t14 9t16.5 -3.5t9.5 -14z" />
    <glyph glyph-name="w" unicode="w" horiz-adv-x="574" 
d="M68 451q4 -44 36 -231l25 -138l5 -21l13 37l33 98q22 60 38 94q10 21 20 34q14 18 31 21q13 2 24 -10q5 -5 11 -13q8 -14 20 -40q13 -29 49 -115q37 -89 48 -112l3 -7l2 12q2 13 4 31.5t3.5 29.5t1.5 15l61 348q2 9 9.5 14t16.5 3.5t14 -9t4 -16.5l-61 -348
q-1 -3 -2.5 -14t-3.5 -28.5t-3 -30.5l-6 -44q-2 -10 -3 -16q-1 -4 -3 -7q-1 -3 -2 -5q-6 -9 -16 -10q-13 -1 -24 9q-6 5 -12 14q-10 13 -22 40q-17 34 -50 115q-35 87 -48 113q-8 18 -14 29q-6 -9 -13 -23q-14 -30 -35 -88l-33 -99q-19 -52 -28 -68q-6 -10 -11 -15
q-6 -6 -12 -9q-15 -6 -26 4q-5 3 -8 9q-1 3 -3 7q-2 6 -4 15q-5 16 -11 47q-9 44 -25 139q-34 200 -37 235q-1 9 5 16t15 8t16 -5t8 -15z" />
    <glyph glyph-name="x" unicode="x" horiz-adv-x="356" 
d="M147 204q-57 -97 -98 -200q-3 -9 -11.5 -12.5t-17 0t-12 12t0.5 16.5q47 119 114 229q-58 114 -97 217q-3 9 1 17t12.5 11.5t16.5 -0.5t12 -12q33 -91 82 -189q63 96 136 176q6 7 15 7t16 -6t7 -15t-6 -16q-78 -86 -145 -191q54 -104 136 -236q5 -8 2.5 -17t-10 -14
t-16.5 -2.5t-14 9.5q-74 120 -124 216z" />
    <glyph glyph-name="y" unicode="y" horiz-adv-x="357" 
d="M67 452q-21 -131 -18 -235q2 -78 19 -119q16 -40 45 -39q15 1 36.5 27t44.5 72q37 76 56 149q6 23 19 104q2 10 3 47v4v4v2v2v2v2q0 2 1 4q15 31 37 9q2 -3 3.5 -6t1.5 -4l1 -2v-2v-1v-1v-1v-2v-1v-13q0 -51 -1.5 -145t-1.5 -170.5t3 -144.5q1 -18 5 -81q4 -51 4 -83
q0 -9 -6.5 -15.5t-15.5 -6.5t-15.5 6.5t-6.5 15.5q0 31 -4 80q-4 64 -5 82q-4 93 -2 233q-18 -47 -37 -86q-25 -51 -50 -81q-33 -41 -68 -43q-60 -3 -88 66q-19 49 -22 135q-3 106 18 242q2 9 9 14.5t16 4t14.5 -8.5t4.5 -16z" />
    <glyph glyph-name="z" unicode="z" horiz-adv-x="367" 
d="M55 472q23 3 121 8q45 2 74 3h25h9q8 -1 13 -4q13 -8 20 -23.5t3 -30.5q-4 -19 -29 -58q-18 -29 -48 -71h21q9 0 15.5 -6.5t6.5 -15.5t-6.5 -15.5t-15.5 -6.5q-24 0 -54 -1q-64 -87 -65 -89l-73 -106l-17 -26q9 -1 20 -1q31 -2 83 1q27 1 88 5q49 4 64 4q9 0 15.5 -6.5
t6.5 -15.5t-6.5 -15.5t-15.5 -6.5q-13 0 -61 -3q-61 -5 -89 -6q-54 -3 -87 -1q-20 1 -34 3q-19 4 -29 12q-7 6 -8 16v7q1 4 3 8t7 12q7 13 23 37l74 108q7 10 46 62l-36 -1q-9 0 -16 6t-7 15t6 16t15 7q67 2 71 2l15 22q32 44 51 73q21 34 24 45q0 1 -1 4h-3h-23
q-28 -1 -72 -3q-97 -5 -118 -8q-9 -1 -16.5 4.5t-8.5 14.5t4.5 16.5t14.5 8.5z" />
    <glyph glyph-name="braceleft" unicode="{" horiz-adv-x="352" 
d="M301 720q-77 -4 -122.5 -46t-48.5 -119q0 -12 5 -75q5 -51 -5 -85q-8 -30 -52 -71l-17 -15q15 -7 23 -12q52 -29 68 -77q9 -28 10 -93q1 -76 4 -100q7 -50 27 -72q23 -25 74 -21q9 1 16 -5t8 -15t-5 -16t-15 -8q-73 -6 -111 36q-29 32 -37 95q-4 25 -5 105q-1 59 -8 80
q-10 32 -48 53q-2 2 -29 15q-8 4 -13 7q-9 7 -13 15q-5 11 1 22q2 3 5 6l9 9l26 23q35 33 40 51q7 26 3 69q-6 66 -5 81q4 95 62 148.5t151 58.5q9 0 16 -6t7 -15t-6 -16t-15 -7z" />
    <glyph glyph-name="bar" unicode="|" horiz-adv-x="466" 
d="M171 322q5 70 -3 146q-5 48 -20 78q-8 16 -17 21t-23 -2q-18 -9 -17 -53q1 -37 14 -76q19 -57 66 -114zM202 227q-19 -93 -63 -160q-5 -8 -13.5 -9.5t-16.5 3.5t-9.5 13.5t3.5 16.5q45 69 61 172q-74 77 -101 159q-15 45 -16 89q-2 73 43 94q33 16 61 1q22 -11 36 -40
q19 -37 25 -94q10 -102 -1 -193q94 -90 207 -129q9 -3 13 -11.5t1 -17t-11.5 -12.5t-16.5 -1q-107 37 -202 119z" />
    <glyph glyph-name="braceright" unicode="}" horiz-adv-x="349" 
d="M35 -70q78 9 120 50q45 45 45 122q0 9 -10 75q-8 53 4 88q10 26 49 69l15 16q-14 6 -23 11q-54 28 -71 74q-8 23 -12 90q-4 72 -9 101q-9 52 -30 73q-24 25 -74 17q-9 -1 -16 4.5t-8.5 14.5t4 16t14.5 9q71 11 111 -30q31 -31 43 -96q5 -31 9 -107q3 -58 10 -76
q11 -31 50 -52q6 -3 30 -14q8 -4 13 -6q10 -6 14 -15q2 -4 2 -8.5t-1 -6.5l-1 -3l-2 -4l-2 -2l-3 -3l-7 -8l-23 -24q-34 -37 -40 -56q-9 -23 -2 -66q10 -69 10 -81q0 -96 -58 -153q-55 -54 -147 -63q-9 -1 -16 5t-8 15t5 16t15 8z" />
    <glyph glyph-name="asciitilde" unicode="~" horiz-adv-x="346" 
d="M-6 644q42 66 93 71q35 3 83 -25q46 -26 59 -28q23 -4 44 25q6 7 15 8.5t16 -4t8.5 -14.5t-3.5 -16q-38 -51 -87 -42q-8 1 -15.5 3.5t-16.5 7.5l-14 6q-5 3 -15.5 9t-11.5 7q-37 21 -57 19q-30 -3 -62 -51q-5 -8 -13.5 -9.5t-16.5 3.5t-9.5 13.5t3.5 16.5z" />
    <glyph glyph-name="exclamdown" unicode="&#xa1;" horiz-adv-x="131" 
d="M84 593q30 -236 -8 -587q-1 -9 -8 -15t-16 -5t-15 8t-5 16q38 347 8 577q-1 9 4.5 16.5t14.5 8.5t16.5 -4.5t8.5 -14.5zM81 694q0 -9 -6.5 -15.5t-15.5 -6.5t-15.5 6.5t-6.5 15.5t6.5 15.5t15.5 6.5t15.5 -6.5t6.5 -15.5z" />
    <glyph glyph-name="cent" unicode="&#xa2;" horiz-adv-x="373" 
d="M233 421q-42 -5 -84 -61t-63 -129q-20 -74 -7 -123q13 -47 58 -50q61 -5 118 72q35 47 58 103q3 9 11.5 12.5t17 0t12 -12t-0.5 -16.5q-24 -62 -62 -113q-72 -97 -158 -90q-76 6 -96 83q-17 61 7 146q23 82 70 144q53 70 113 78q9 1 16.5 -4.5t8.5 -14.5t-4.5 -16.5
t-14.5 -8.5zM207 -51q3 -29 5 -63q1 -9 -5.5 -15.5t-15.5 -7.5t-15.5 5.5t-7.5 15.5q-2 32 -5 61q-1 9 5 16t15 8t16 -5t8 -15zM185 573q2 -32 2 -68q0 -9 -6.5 -15.5t-15.5 -6.5t-15.5 6.5t-6.5 15.5q0 34 -2 66q-1 9 5.5 15.5t15.5 7.5t15.5 -5.5t7.5 -15.5z" />
    <glyph glyph-name="sterling" unicode="&#xa3;" horiz-adv-x="445" 
d="M0 355q24 -1 52 0q7 48 16 88q38 168 118 225q52 36 118 26q33 -5 59 -23.5t39 -49.5q3 -8 5 -17.5t2.5 -16.5t0.5 -18t-0.5 -16t-1.5 -16t-1 -14q-1 -9 -8 -15t-16 -5t-15 8t-5 16q0 3 1 15t1.5 15t0.5 12t-0.5 13.5t-1.5 11t-4 11.5q-14 38 -63 45q-48 8 -85 -18
q-67 -47 -101 -199q-8 -37 -15 -76q13 1 32 2q92 6 131 6q9 0 15.5 -6.5t6.5 -15.5t-6.5 -15.5t-15.5 -6.5q-37 0 -129 -6q-24 -2 -40 -3q-4 -36 -11 -122q-3 -44 -7 -101q-2 -26 -2 -44q10 0 29 -1q43 -1 109 -2q166 -3 179 -2q9 0 16 -6t7 -15t-6 -16t-15 -7
q-15 -1 -182 2q-66 1 -109 2q-24 1 -37 2h-11q-3 1 -4 1q-5 1 -9 2q-7 4 -10 12l-2 4v3v1v1v5q0 5 1 15q0 14 2 46q4 64 7 102q6 76 11 117q-25 -1 -48 0q-9 0 -15 7t-6 16t7 15t16 6z" />
    <glyph glyph-name="currency" unicode="&#xa4;" horiz-adv-x="465" 
d="M106 225q28 -30 65 -41t73 -5t67 26q48 31 61 76q15 48 -19 94q-19 26 -48.5 40t-59.5 12.5t-60.5 -13.5t-51 -37t-30.5 -59.5t1 -79.5q1 -6 -1 -10zM95 488l11 -15q5 -7 6.5 -9.5t3.5 -4.5l7 -7l14 -14q47 32 104 34t105 -29q11 12 49 49q6 6 15 6t15.5 -6.5t6.5 -15.5
t-7 -16q-36 -35 -46 -47l10 -12q46 -64 26 -133q-9 -28 -28 -53q13 -12 35 -28q7 -6 8.5 -15t-4 -16t-14.5 -8.5t-16 3.5q-23 17 -40 33q-10 -9 -21 -16q-37 -23 -79.5 -31.5t-88.5 3t-82 44.5q-20 -15 -51 -35q-8 -4 -17 -2t-13.5 9.5t-2.5 16.5t9 14q33 21 52 36
q-1 3 -2 5q-23 109 43 181l-11 12l-9 9q-2 2 -5 6l-8 10l-11 16q-5 7 -3.5 16t8.5 14.5t16 4t15 -8.5z" />
    <glyph glyph-name="yen" unicode="&#xa5;" horiz-adv-x="557" 
d="M239 295q-40 -8 -78 -18q11 -21 23 -26q8 -5 21 1q14 8 34 43zM298 433q-64 -15 -171 -47q8 -39 17 -68q59 15 120 28l16 38zM364 492l20 3q1 34 1 62l-7 -24zM316 356q31 6 64 11l2 83q-16 -3 -34 -6q-14 -43 -27 -76zM93 696q1 -7 2 -22.5t2.5 -41t3.5 -45.5
q7 -92 18 -157q121 35 196 52l21 65q5 13 17 56q11 36 20 57q0 1 2 7q2 8 4 12q4 9 9 14q8 9 20 7q11 -1 17 -11q4 -5 5 -13v-9q1 -10 1 -27q0 -27 -1 -74q-1 -29 -2 -64q38 5 73 6q9 0 16 -6t7 -15t-6 -16t-15 -7q-36 -1 -77 -7v-9q-1 -35 -2 -74q29 5 59 9q9 1 16.5 -4.5
t8.5 -14.5t-4.5 -16.5t-14.5 -8.5q-34 -4 -66 -9v-320q0 -9 -6.5 -15.5t-15.5 -6.5t-15.5 6.5t-6.5 15.5v313l-85 -16q-8 -17 -16 -32q-27 -48 -53 -61q-32 -18 -62 -2q-23 12 -41 45l-4 8q-36 -9 -71 -20q-8 -3 -16 1.5t-11 13t1.5 16.5t13.5 11l66 20q-9 29 -17 67
l-51 -15q-9 -3 -17 1.5t-10.5 13.5t2 17t13.5 10l55 16q-11 70 -19 166q-1 21 -3 45.5t-3 40t-2 21.5q-1 9 4.5 16.5t14.5 8.5t16.5 -4.5t8.5 -14.5z" />
    <glyph glyph-name="brokenbar" unicode="&#xa6;" horiz-adv-x="248" 
d="M221 157q-9 -155 -1 -257q1 -9 -5 -16t-15 -8t-16 5t-8 15q-8 105 1 263q1 9 7.5 15t15.5 5.5t15 -7t6 -15.5zM215 691q-9 -155 -1 -257q1 -9 -5 -16t-15 -8t-16 5t-8 15q-8 105 1 263q1 9 7.5 15t15.5 5.5t15 -7t6 -15.5z" />
    <glyph glyph-name="section" unicode="&#xa7;" horiz-adv-x="341" 
d="M190 255q1 2 3 3q57 41 52 73q-4 26 -51 64l-29 22q-57 -39 -53 -71q2 -26 47 -65q11 -10 31 -26zM233 556q-7 43 -33 65t-59 21q-30 0 -49.5 -19.5t-16.5 -52.5q3 -29 48 -67q15 -13 48 -37q36 -26 50 -37q61 -48 67 -91q9 -57 -63 -111q17 -14 28 -24q56 -53 58 -102
q2 -58 -35 -89q-33 -27 -82 -23q-45 4 -83.5 35t-48.5 81q-1 9 4 16.5t14 9t16.5 -3.5t9.5 -14q6 -34 32.5 -56t59.5 -24q31 -3 50 13q20 17 19 53q-1 31 -44 71q-15 15 -45 39q-36 28 -48 39q-58 51 -62 94q-5 53 59 102q-19 14 -32 25q-59 50 -64 97q-5 54 28.5 86.5
t81.5 33.5t87 -31t49 -93q1 -9 -4.5 -16t-14.5 -8.5t-16 4t-9 14.5z" />
    <glyph glyph-name="dieresis" unicode="&#xa8;" horiz-adv-x="227" 
d="M57 655q0 -9 -6.5 -15.5t-15.5 -6.5t-15.5 6.5t-6.5 15.5t6.5 15.5t15.5 6.5t15.5 -6.5t6.5 -15.5zM192 647q0 -9 -6.5 -15.5t-15.5 -6.5t-15.5 6.5t-6.5 15.5t6.5 15.5t15.5 6.5t15.5 -6.5t6.5 -15.5z" />
    <glyph glyph-name="copyright" unicode="&#xa9;" horiz-adv-x="563" 
d="M249 756q5 1 10 1q72 -10 128 -54.5t92 -111.5q33 -62 46.5 -135t4.5 -141q-7 -51 -31 -103.5t-60 -94.5q-88 -101 -196 -94q-109 7 -165 121q-47 97 -42 237q5 135 57 239q59 118 153 136h3zM254 712q-72 -13 -122 -112q-47 -95 -52 -221q-5 -128 37 -215
q45 -91 128 -97q87 -6 160 79q33 37 54 84t27 91q8 61 -4 127t-42 122q-67 125 -184 143q-1 0 -2 -1zM338 475q-9 31 -25 40q-13 6 -33 0q-22 -8 -43.5 -28.5t-33.5 -43.5q-26 -55 -22.5 -111t29.5 -89q24 -29 55 -20q44 13 92 90q5 7 14 9t16.5 -2.5t9.5 -13.5t-2 -17
q-58 -91 -118 -108q-59 -17 -101 35q-35 43 -39.5 113t26.5 134q16 30 44 56.5t59 36.5q38 13 68 -3q33 -17 46 -66q3 -9 -1.5 -17t-13.5 -10.5t-17 2t-10 13.5z" />
    <glyph glyph-name="ordfeminine" unicode="&#xaa;" horiz-adv-x="344" 
d="M230 585q-45 -3 -78 -32t-46 -65t-11 -70q2 -22 10 -32q5 -6 15 -4q18 4 48 33t68 91l4 4l-3 25q-4 31 -7 50zM51 655q44 47 100 62q23 7 42 5q30 -2 46 -23q16 -22 27 -69q7 -32 15 -89q20 -146 27 -166q3 -9 -1.5 -17t-13 -11t-16.5 1.5t-11 12.5q-9 29 -17 84
q-67 -96 -121 -106q-35 -7 -57 19q-17 21 -20 57q-2 30 7 64t28.5 66.5t54.5 55.5t80 28q-8 31 -18 44q-3 5 -13 6q-11 0 -27 -4q-44 -13 -80 -50q-6 -7 -15.5 -7t-16 6t-6.5 15.5t6 15.5z" />
    <glyph glyph-name="guillemotleft" unicode="&#xab;" horiz-adv-x="392" 
d="M202 437l-95 -102q-34 -37 -53 -61q-11 -13 -17 -22l-5 -8q0 -4 4 -13q16 -30 57 -69q7 -7 23 -22l27 -25q12 -11 21 -21q6 -7 5.5 -16t-7 -15t-15.5 -5.5t-15 6.5q-10 11 -21 22l-26 24q-15 13 -22 20q-46 44 -65 81q-13 23 -8 43q1 9 11 23q8 11 19 25l54 62l96 103
q6 7 15 7t16 -6t7 -15t-6 -16zM347 414q-2 -2 -86 -95l-47 -53q-18 -23 -20 -28.5t12 -24.5q14 -21 47 -52q46 -43 100 -83q7 -6 8.5 -15t-4 -16t-14.5 -8.5t-16 3.5q-56 42 -105 88q-35 33 -52 58q-26 36 -18 62q4 14 28 44l49 55q81 90 84 93q5 7 14 8t16.5 -4.5
t8.5 -14.5t-5 -17z" />
    <glyph glyph-name="logicalnot" unicode="&#xac;" horiz-adv-x="421" 
d="M38 329q12 1 34 7l58 14q36 10 59 15q54 13 87 18q48 6 68 -3t30 -39q7 -19 10 -49q3 -29 3 -85q0 -9 -6.5 -15.5t-15.5 -6.5t-15.5 6.5t-6.5 15.5q0 54 -3 80q-2 25 -8 40l-6 13q-9 4 -44 -1q-31 -4 -83 -17q-20 -4 -57 -14t-61 -15.5t-37 -7.5q-9 -1 -16.5 4.5
t-8.5 14.5t4.5 16.5t14.5 8.5z" />
    <glyph glyph-name="registered" unicode="&#xae;" horiz-adv-x="563" 
d="M249 756q5 1 10 1q72 -10 128 -54.5t92 -111.5q33 -62 46.5 -135t4.5 -141q-7 -51 -31 -103.5t-60 -94.5q-88 -101 -196 -94q-109 7 -165 121q-47 97 -42 237q5 135 57 239q59 118 153 136h3zM205 378q80 68 96 131q5 24 -2 35q-6 9 -22 11q-18 2 -39 -4.5t-36 -17.5
q-1 -54 3 -155zM254 712q-72 -13 -122 -112q-47 -95 -52 -221q-5 -128 37 -215q45 -91 128 -97q87 -6 160 79q33 37 54 84t27 91q8 61 -4 127t-42 122q-67 125 -184 143q-1 0 -2 -1zM169 563q21 18 52.5 28.5t60.5 6.5q35 -4 53 -28q19 -28 8 -71q-18 -76 -105 -151l35 -26
l36 -27q13 -10 33 -23.5t39 -23.5q8 -4 10.5 -13t-2 -17t-13.5 -10.5t-17 2.5q-19 10 -41 24.5t-37 25.5l-38 29l-36 27q2 -50 2 -87q0 -9 -6.5 -15.5t-15.5 -6.5t-15.5 6.5t-6.5 15.5q0 36 -2 84q-2 2 -3 5q-10 15 2 27q-5 140 -4 193q0 6 3 12q2 7 8 13z" />
    <glyph glyph-name="macron" unicode="&#xaf;" horiz-adv-x="408" 
d="M65 688q153 0 281 28q9 1 17 -3.5t9.5 -13.5t-3 -17t-13.5 -10q-133 -28 -291 -28q-9 0 -15.5 6.5t-6.5 15.5t6.5 15.5t15.5 6.5z" />
    <glyph glyph-name="degree" unicode="&#xb0;" horiz-adv-x="280" 
d="M87 714q2 8 8.5 12.5t15.5 3.5q72 -9 108 -60q31 -43 29 -106q-3 -56 -32.5 -106.5t-74.5 -65.5q-71 -23 -114 17q-37 34 -40 100q-2 60 24.5 119.5t75.5 85.5zM108 675q-36 -18 -57.5 -66t-19.5 -98q2 -48 26 -70t70 -7q29 9 51.5 47.5t25.5 84.5q2 48 -21 79
q-22 31 -66 39q-3 -5 -9 -9z" />
    <glyph glyph-name="plusminus" unicode="&#xb1;" horiz-adv-x="411" 
d="M153 382q-51 -10 -91 -13q-9 -1 -15.5 5t-7.5 15.5t5 16t16 7.5q37 2 87 13q-2 16 -5 45t-4 40q-1 9 5 16t15 8t16 -5t8 -15q1 -12 4 -38.5t4 -40.5q71 16 106 21q9 1 16.5 -4.5t8.5 -14.5t-4.5 -16.5t-14.5 -8.5q-34 -4 -106 -21q8 -61 21 -106q3 -9 -1.5 -17
t-13.5 -10.5t-17 2t-10 13.5q-13 46 -22 108zM75 208q54 6 137 22q99 19 140 25q9 1 16.5 -4.5t8.5 -14.5t-4.5 -16.5t-14.5 -8.5q-34 -4 -138 -24q-89 -17 -141 -23q-9 -1 -16 5t-8 15t5 16t15 8z" />
    <glyph glyph-name="uni00B2" unicode="&#xb2;" horiz-adv-x="332" 
d="M51 612q13 14 50 37.5t71 36.5q48 18 77 8q43 -16 35 -77q-4 -31 -17 -62.5t-37.5 -66.5t-37.5 -52l-41 -50q-19 -23 -54 -58q21 3 47 3.5t42.5 0.5t48.5 -1.5t43 -1.5q9 0 15 -7t6 -16t-7 -15t-16 -6q-12 0 -41.5 1.5t-44.5 1.5h-38q-24 0 -43.5 -2.5t-39.5 -6.5
q-1 0 -4 -1q-8 -3 -10 -4q-24 -7 -38 9q-7 8 -5 18q1 3 3 6l2 4q1 2 3 4l9 9l26 25q42 41 62 65q39 46 55 68q19 25 41.5 66t26.5 75q4 26 -6 29q-13 5 -46 -7q-30 -12 -62.5 -32.5t-42.5 -30.5q-6 -7 -15.5 -7t-16 6t-6.5 15.5t6 15.5z" />
    <glyph glyph-name="uni00B3" unicode="&#xb3;" horiz-adv-x="341" 
d="M54 598q10 16 35.5 39t52.5 39q34 21 61 26q40 7 62 -18q40 -45 -4 -109q-24 -34 -63 -64q29 -4 53 -15q42 -20 52 -58q24 -86 -67 -137q-48 -27 -141 -46q-9 -1 -16.5 4t-9 14t3.5 16.5t14 9.5q85 17 128 40q61 34 46 87q-5 19 -29 30q-23 11 -51 12q-21 1 -25 0
q-1 0 -6 -1q-10 -2 -16 -3l-3 -1q-8 -3 -9 -3q-9 -4 -16 -3q-10 1 -16.5 8t-6.5 17q0 7 4 13l3 3l2 2q1 0 2 1t3 2l8 5l25 14q36 20 37 21q36 25 58 57q24 36 8 54q-7 8 -22 5q-19 -4 -46 -20q-24 -15 -45.5 -34.5t-29.5 -30.5q-5 -8 -14 -9.5t-16.5 3.5t-9 14t3.5 16z" />
    <glyph glyph-name="acute" unicode="&#xb4;" horiz-adv-x="167" 
d="M132 734q-51 -81 -74 -128q-4 -9 -12.5 -12t-17 1t-11.5 12.5t1 16.5q24 50 76 134q5 7 14 9t16.5 -2.5t9.5 -13.5t-2 -17z" />
    <glyph glyph-name="uni00B5" unicode="&#xb5;" horiz-adv-x="389" 
d="M297 98q28 -43 54 -77q5 -7 3.5 -16t-8.5 -14.5t-16 -4t-15 8.5l-45 64q-25 -37 -54 -54q-47 -28 -94 -3q-29 15 -56 53l-3 -20q-11 -83 -15 -115q-1 -9 -8 -15t-16 -5t-15 8t-5 16q2 14 16 117q10 70 13 115q9 129 0 337q0 9 6 16t15 7t16 -6t7 -15q9 -212 0 -343
q-1 -12 -2 -26q1 -2 3 -4q31 -64 65 -82q25 -13 50 2q28 17 52.5 61t37.5 101q27 124 4 269q-1 9 4.5 16t14.5 8.5t16 -4t9 -14.5q24 -152 -6 -285q-11 -51 -31 -92q2 -2 3 -4z" />
    <glyph glyph-name="paragraph" unicode="&#xb6;" horiz-adv-x="411" 
d="M244 664l-22 -4q-45 -11 -79 -36t-43 -55q-22 -74 36 -154q40 -55 102 -95q-2 201 6 344zM371 681q6 3 12 3q9 -1 15 -7.5t6 -15.5l-1 -12q4 -10 -1 -20q-3 -71 -4 -159.5t-0.5 -135.5t3.5 -168.5t3 -143.5q0 -9 -6 -15.5t-15.5 -6.5t-16 6t-6.5 16q-1 35 -2.5 103.5
t-1.5 100.5h-2q-5 2 -30.5 9.5t-40.5 12.5q1 -37 2.5 -112t2.5 -112q0 -9 -6 -15.5t-15.5 -6.5t-16 6t-6.5 16q-1 35 -2.5 117.5t-2.5 126.5q-85 46 -139 121q-71 98 -42 192q14 45 57 77t97 45q97 22 159 -22zM288 663q-9 -150 -6 -367q15 -6 73 -24q-4 217 3 363
q-25 25 -70 30v-2z" />
    <glyph glyph-name="periodcentered" unicode="&#xb7;" horiz-adv-x="107" 
d="M72 379q0 -9 -6.5 -15.5t-15.5 -6.5t-15.5 6.5t-6.5 15.5t6.5 15.5t15.5 6.5t15.5 -6.5t6.5 -15.5z" />
    <glyph glyph-name="cedilla" unicode="&#xb8;" horiz-adv-x="108" 
d="M73 60q-4 -89 -74 -160q-7 -6 -16 -6t-15.5 6.5t-6.5 15.5t6 16q59 58 62 130q0 9 7 15t16 6t15 -7t6 -16z" />
    <glyph glyph-name="uni00B9" unicode="&#xb9;" horiz-adv-x="227" 
d="M185 686q0 -30 -1 -85.5t-1 -89.5t2 -81.5t7 -86.5q1 -9 -4.5 -16.5t-14.5 -8.5t-16.5 4.5t-8.5 14.5q-5 41 -7 90t-2 84t1 90.5t1 84.5q0 9 6.5 15.5t15.5 6.5t15.5 -6.5t6.5 -15.5z" />
    <glyph glyph-name="ordmasculine" unicode="&#xba;" horiz-adv-x="328" 
d="M148 692v1q2 9 9.5 14t16.5 4q41 -7 69.5 -39t40 -72t11.5 -83q-1 -69 -27 -121q-31 -61 -85 -69q-59 -9 -92 43q-26 41 -28 108q-1 63 21.5 124t63.5 90zM174 656q-31 -21 -49.5 -71.5t-17.5 -105.5t21 -85q18 -28 49 -23q31 4 52 45q22 42 22 101q0 54 -19 94t-52 52
q-2 -4 -6 -7z" />
    <glyph glyph-name="guillemotright" unicode="&#xbb;" horiz-adv-x="403" 
d="M9 98l93 104q33 38 51 62q11 14 17 23l4 7q1 4 -4 13q-17 30 -58 68l-24 21q-16 14 -28 25l-21 21q-6 6 -6 15.5t6.5 15.5t16 6t15.5 -7q9 -10 21 -20l26 -24q15 -13 23 -21q47 -42 67 -78q13 -24 10 -43q-2 -9 -11 -23q-7 -11 -19 -26q-19 -25 -53 -64l-94 -105
q-6 -6 -15 -6.5t-15.5 5.5t-7 15t5.5 16zM156 111q9 10 40 37l55 48q32 29 50 48q20 21 24 29q2 6 -10 26q-13 23 -42 56q-42 48 -92 91q-7 6 -8 15t5 16t15 8t16 -5q52 -45 97 -96q32 -36 47 -63q22 -39 12 -64q-6 -16 -32 -44q-16 -16 -53 -49l-55 -49q-28 -25 -37 -34
q-6 -7 -15.5 -7t-16 6t-6.5 15.5t6 15.5z" />
    <glyph glyph-name="onequarter" unicode="&#xbc;" horiz-adv-x="672" 
d="M504 189q1 49 0 144l-54 -67l-58 -71l-2 -2q22 -2 57 -3q25 -1 57 -1zM548 393v-205h70q9 0 15.5 -6.5t6.5 -15.5t-6.5 -15.5t-15.5 -6.5h-71q-2 -66 -7 -121q-1 -9 -8 -15t-16 -5t-15 8t-5 16q5 54 7 118q-32 0 -58 1q-44 2 -69 4q-15 1 -23 2q-6 1 -9.5 2.5t-6.5 3.5
q-8 6 -10 15q-1 6 1 12l2 2q0 1 1 2q0 1 1 2l2 2l5 7l19 23l58 70q71 89 89 113q2 11 12 15q11 6 22 0q7 -4 10 -12t-1 -16zM265 664q-3 -41 -3 -85t1 -100.5t1 -84.5q0 -9 -6.5 -15.5t-15.5 -6.5t-15.5 6.5t-6.5 15.5q0 28 -1 85.5t-1 102t3 84.5q1 10 7.5 16t16 5
t15.5 -7.5t5 -15.5zM135 10q11 28 25 58t37.5 73t28.5 54q161 312 315 507q5 7 14.5 8t16.5 -4.5t8 -15t-5 -16.5q-151 -191 -309 -499l-29 -55l-36 -70q-14 -28 -24 -56q-4 -8 -12 -12t-16.5 -0.5t-12.5 11.5t-1 17z" />
    <glyph glyph-name="onehalf" unicode="&#xbd;" horiz-adv-x="633" 
d="M265 664q-3 -41 -3 -85t1 -100.5t1 -84.5q0 -9 -6.5 -15.5t-15.5 -6.5t-15.5 6.5t-6.5 15.5q0 28 -1 85.5t-1 102t3 84.5q1 10 7.5 16t16 5t15.5 -7.5t5 -15.5zM135 10q11 28 25 58t37.5 73t28.5 54q161 312 315 507q5 7 14.5 8t16.5 -4.5t8 -15t-5 -16.5
q-151 -191 -309 -499l-29 -55l-36 -70q-14 -28 -24 -56q-4 -8 -12 -12t-16.5 -0.5t-12.5 11.5t-1 17zM379 296q13 23 50 49.5t72 40.5q48 18 75 2q36 -20 21 -82q-11 -50 -74 -127q-28 -34 -97 -106l-14 -14q15 -1 36 -2q10 0 109 -3q9 0 15 -7t6 -16t-7 -15t-16 -6
q-98 3 -109 4q-37 1 -58 3q-13 1 -20 3q-5 1 -8.5 2t-6.5 3q-8 6 -10 16q0 4 0.5 7.5t1.5 4.5l1 2q1 2 2 3t2 3l6 6l15 14q4 4 10 9.5t9 8.5l4 4q68 71 95 104q56 69 66 109q6 30 -1 34q-9 5 -37 -5q-30 -12 -62 -35q-29 -22 -38 -36q-5 -8 -14 -10.5t-16.5 2.5t-10 14
t2.5 16z" />
    <glyph glyph-name="threequarters" unicode="&#xbe;" horiz-adv-x="672" 
d="M502 189q1 49 0 144l-54 -67l-58 -71l-2 -2q22 -2 57 -3q25 -1 57 -1zM546 393v-205h70q9 0 15.5 -6.5t6.5 -15.5t-6.5 -15.5t-15.5 -6.5h-71q-2 -66 -7 -121q-1 -9 -8 -15t-16 -5t-15 8t-5 16q5 54 7 118q-32 0 -58 1q-44 2 -69 4q-15 1 -23 2q-6 1 -9.5 2.5t-6.5 3.5
q-8 6 -10 15q-1 6 1 12l2 2q0 1 1 2q0 1 1 2l2 2l5 7l19 23l58 70q71 89 89 113q2 11 12 15q11 6 22 0q7 -4 10 -12t-1 -16zM133 10q11 28 25 58t37.5 73t28.5 54q161 312 315 507q5 7 14.5 8t16.5 -4.5t8 -15t-5 -16.5q-151 -191 -309 -499l-29 -55l-36 -70
q-14 -28 -24 -56q-4 -8 -12 -12t-16.5 -0.5t-12.5 11.5t-1 17zM152 685q59 9 84 12q31 3 50 1q14 -1 22 -5q16 -6 21 -18q11 -26 -5 -52q-10 -17 -34 -34q-16 -11 -41 -24q43 -9 60 -25q46 -42 24 -88q-15 -32 -66 -59q-38 -20 -84 -33q-48 -14 -75 -16q-9 -1 -16 5t-8 15
t5 16t15 8q23 2 66 14t77 30q38 20 47 39q7 16 -15 37q-9 8 -49 16q-5 1 -16 3t-16 3q-8 1 -13 3q-10 3 -15 9q-8 8 -7.5 18t8.5 18q5 5 15 8q4 1 7.5 2t5 1.5t2.5 1.5q3 1 17 8l25 13q12 6 22 13q16 11 22 21q3 4 3 7q-3 1 -8 1q-15 1 -42 -1q-24 -2 -80 -12q-9 -1 -16.5 4
t-9 14t3.5 16.5t14 9.5z" />
    <glyph glyph-name="questiondown" unicode="&#xbf;" horiz-adv-x="377" 
d="M343 137l-19 -25l-19 -26q-7 -9 -19 -22.5t-25 -24.5t-29 -21q-38 -23 -80 -32t-80 1q-42 12 -63.5 47.5t-15.5 91.5q3 25 12.5 50t27.5 51.5t31 43t38 45.5l34 40q19 24 32 43t25 42.5t16.5 45.5t3 47.5t-10.5 52.5q-3 8 1 16.5t12.5 11.5t17 -1t11.5 -13
q11 -33 12.5 -65.5t-4.5 -59t-19.5 -54t-28 -48.5t-34.5 -46l-36 -42q-25 -29 -36.5 -43.5t-27 -37.5t-23.5 -43t-10 -42q-9 -75 47 -90q25 -8 59 -1t65 27q17 10 32 24t21 22l24 30l23 32q6 7 15 8t16.5 -4.5t8.5 -14.5t-5 -16zM242 691q0 -9 -6.5 -15.5t-15.5 -6.5
t-15.5 6.5t-6.5 15.5t6.5 15.5t15.5 6.5t15.5 -6.5t6.5 -15.5z" />
    <glyph glyph-name="Agrave" unicode="&#xc0;" horiz-adv-x="558" 
d="M126 186q134 36 251 48l-87 278q0 1 -4 14l-11 33q-6 21 -11 39l-11 34l-4 -11q-19 -50 -39 -111q-49 -150 -84 -324zM117 137q-13 -68 -23 -136q-2 -9 -9 -14.5t-16 -4t-14.5 8.5t-4.5 16l19 117l-27 -9q-9 -3 -17 1.5t-11 13t1.5 16.5t12.5 11l50 15q37 187 90 352
q20 63 40 113q11 29 19 45q5 9 9 15q3 5 7 7q13 9 26 2q4 -2 7 -6q1 -2 2 -3.5t1 -3.5l3 -6q2 -7 6 -19l18 -57q6 -18 12 -38.5t10 -33t4 -13.5l89 -288q42 3 83 3q9 0 15.5 -6.5t6.5 -15.5t-6.5 -15.5t-15.5 -6.5q-34 0 -69 -2q35 -104 68 -185q4 -8 0.5 -16.5t-12 -12
t-17 0t-11.5 12.5q-36 85 -73 197q-125 -12 -273 -54zM218 832q62 -42 91 -58q8 -4 10.5 -13t-2 -17t-13.5 -10.5t-17 2.5q-30 17 -93 60q-8 5 -9.5 14t3.5 16.5t14 9t16 -3.5z" />
    <glyph glyph-name="Aacute" unicode="&#xc1;" horiz-adv-x="558" 
d="M126 186q134 36 251 48l-87 278q0 1 -4 14l-11 33q-6 21 -11 39l-11 34l-4 -11q-19 -50 -39 -111q-49 -150 -84 -324zM117 137q-13 -68 -23 -136q-2 -9 -9 -14.5t-16 -4t-14.5 8.5t-4.5 16l19 117l-27 -9q-9 -3 -17 1.5t-11 13t1.5 16.5t12.5 11l50 15q37 187 90 352
q20 63 40 113q11 29 19 45q5 9 9 15q3 5 7 7q13 9 26 2q4 -2 7 -6q1 -2 2 -3.5t1 -3.5l3 -6q2 -7 6 -19l18 -57q6 -18 12 -38.5t10 -33t4 -13.5l89 -288q42 3 83 3q9 0 15.5 -6.5t6.5 -15.5t-6.5 -15.5t-15.5 -6.5q-34 0 -69 -2q35 -104 68 -185q4 -8 0.5 -16.5t-12 -12
t-17 0t-11.5 12.5q-36 85 -73 197q-125 -12 -273 -54zM214 786q71 56 105 78q7 5 16 3.5t14 -9t3.5 -16.5t-9.5 -14q-32 -22 -101 -76q-8 -6 -17 -5t-14.5 8.5t-4.5 16.5t8 14z" />
    <glyph glyph-name="Acircumflex" unicode="&#xc2;" horiz-adv-x="558" 
d="M126 186q134 36 251 48l-87 278q0 1 -4 14l-11 33q-6 21 -11 39l-11 34l-4 -11q-19 -50 -39 -111q-49 -150 -84 -324zM117 137q-13 -68 -23 -136q-2 -9 -9 -14.5t-16 -4t-14.5 8.5t-4.5 16l19 117l-27 -9q-9 -3 -17 1.5t-11 13t1.5 16.5t12.5 11l50 15q37 187 90 352
q20 63 40 113q11 29 19 45q5 9 9 15q3 5 7 7q13 9 26 2q4 -2 7 -6q1 -2 2 -3.5t1 -3.5l3 -6q2 -7 6 -19l18 -57q6 -18 12 -38.5t10 -33t4 -13.5l89 -288q42 3 83 3q9 0 15.5 -6.5t6.5 -15.5t-6.5 -15.5t-15.5 -6.5q-34 0 -69 -2q35 -104 68 -185q4 -8 0.5 -16.5t-12 -12
t-17 0t-11.5 12.5q-36 85 -73 197q-125 -12 -273 -54zM172 754q42 56 51 67q11 12 19 17q15 8 30 3q9 -4 19 -15q4 -4 14 -18q22 -31 43 -51q6 -7 6 -16t-6.5 -15.5t-15.5 -6.5t-16 6q-23 24 -47 57q-8 11 -10 13l-3 -3q-8 -9 -48 -64q-6 -7 -15 -8.5t-16 4t-8.5 14.5
t3.5 16z" />
    <glyph glyph-name="Atilde" unicode="&#xc3;" horiz-adv-x="558" 
d="M126 186q134 36 251 48l-87 278q0 1 -4 14l-11 33q-6 21 -11 39l-11 34l-4 -11q-19 -50 -39 -111q-49 -150 -84 -324zM117 137q-13 -68 -23 -136q-2 -9 -9 -14.5t-16 -4t-14.5 8.5t-4.5 16l19 117l-27 -9q-9 -3 -17 1.5t-11 13t1.5 16.5t12.5 11l50 15q37 187 90 352
q20 63 40 113q11 29 19 45q5 9 9 15q3 5 7 7q13 9 26 2q4 -2 7 -6q1 -2 2 -3.5t1 -3.5l3 -6q2 -7 6 -19l18 -57q6 -18 12 -38.5t10 -33t4 -13.5l89 -288q42 3 83 3q9 0 15.5 -6.5t6.5 -15.5t-6.5 -15.5t-15.5 -6.5q-34 0 -69 -2q35 -104 68 -185q4 -8 0.5 -16.5t-12 -12
t-17 0t-11.5 12.5q-36 85 -73 197q-125 -12 -273 -54zM162 751q37 61 75 62q24 0 58 -29q19 -16 25 -16q13 2 37 46q4 8 12.5 11t16.5 -1.5t11 -13t-2 -16.5q-33 -65 -70 -69q-25 -3 -59 26q-21 18 -28 18q-14 0 -38 -40q-5 -8 -14 -10.5t-16.5 2.5t-10 14t2.5 16z" />
    <glyph glyph-name="Adieresis" unicode="&#xc4;" horiz-adv-x="558" 
d="M126 186q134 36 251 48l-87 278q0 1 -4 14l-11 33q-6 21 -11 39l-11 34l-4 -11q-19 -50 -39 -111q-49 -150 -84 -324zM117 137q-13 -68 -23 -136q-2 -9 -9 -14.5t-16 -4t-14.5 8.5t-4.5 16l19 117l-27 -9q-9 -3 -17 1.5t-11 13t1.5 16.5t12.5 11l50 15q37 187 90 352
q20 63 40 113q11 29 19 45q5 9 9 15q3 5 7 7q13 9 26 2q4 -2 7 -6q1 -2 2 -3.5t1 -3.5l3 -6q2 -7 6 -19l18 -57q6 -18 12 -38.5t10 -33t4 -13.5l89 -288q42 3 83 3q9 0 15.5 -6.5t6.5 -15.5t-6.5 -15.5t-15.5 -6.5q-34 0 -69 -2q35 -104 68 -185q4 -8 0.5 -16.5t-12 -12
t-17 0t-11.5 12.5q-36 85 -73 197q-125 -12 -273 -54zM220 761q0 -9 -6.5 -15.5t-15.5 -6.5t-15.5 6.5t-6.5 15.5t6.5 15.5t15.5 6.5t15.5 -6.5t6.5 -15.5zM325 769q0 -9 -6.5 -15.5t-15.5 -6.5t-15.5 6.5t-6.5 15.5t6.5 15.5t15.5 6.5t15.5 -6.5t6.5 -15.5z" />
    <glyph glyph-name="Aring" unicode="&#xc5;" horiz-adv-x="558" 
d="M274 702q3 1 8 3t6.5 2.5t4.5 2t4.5 2.5t3.5 3l5 5q22 23 15 33q-10 14 -44 16q-38 3 -66 -13q-28 -15 -28 -42q0 -12 8 -15q4 -3 15 -5q19 -5 22 -6q1 0 2 -1q3 6 6 10q3 5 7 7q13 9 26 2q3 -2 5 -4zM126 186q134 36 251 48l-87 278q0 1 -4 14l-11 33q-6 21 -11 39
l-11 34l-4 -11q-19 -50 -39 -111q-49 -150 -84 -324zM117 137q-13 -68 -23 -136q-2 -9 -9 -14.5t-16 -4t-14.5 8.5t-4.5 16l19 117l-27 -9q-9 -3 -17 1.5t-11 13t1.5 16.5t12.5 11l50 15q37 187 90 352q20 63 40 113l4 10q-3 1 -5.5 1.5t-6 1.5t-5.5 1q-15 4 -24 8
q-32 16 -32 55q0 53 51 81q39 22 90 18q55 -4 77 -34q28 -40 -19 -89q-9 -9 -18 -15t-12 -7.5t-17 -6.5l15 -50q6 -18 12 -38.5t10 -33t4 -13.5l89 -288q42 3 83 3q9 0 15.5 -6.5t6.5 -15.5t-6.5 -15.5t-15.5 -6.5q-34 0 -69 -2q35 -104 68 -185q4 -8 0.5 -16.5t-12 -12
t-17 0t-11.5 12.5q-36 85 -73 197q-125 -12 -273 -54z" />
    <glyph glyph-name="AE" unicode="&#xc6;" horiz-adv-x="813" 
d="M147 291l192 57l-51 164q0 1 -4 14l-11 33q-6 21 -11 39l-11 34l-4 -11q-19 -50 -39 -111q-33 -103 -61 -219zM287 677q27 5 84 17l101 21q44 9 85 15q9 1 16 -4.5t8.5 -14.5t-4 -16t-14.5 -9q-40 -6 -83.5 -14.5t-99.5 -20.5t-83 -17l7 -23q6 -18 12 -38.5t10 -33
t4 -13.5l51 -165l221 65q9 3 17 -1.5t10.5 -13.5t-2 -17t-13.5 -10l-220 -65q56 -182 100 -291q51 9 140.5 41.5t116.5 40.5q8 3 16 -1.5t11 -13t-1.5 -16.5t-13.5 -11q-13 -4 -113.5 -40t-156.5 -45q-2 -1 -4 -1q-8 -4 -16.5 -0.5t-11.5 12.5q-48 115 -109 312l-216 -64
q-26 -119 -44 -241q-2 -9 -9 -14.5t-16 -4t-14.5 8.5t-4.5 16q17 112 40 221q-18 -1 -23 16q-3 8 1.5 16t13.5 11l19 6q30 131 67 247q20 62 40 113q11 29 19 45q5 9 9 15q3 5 7 7q13 9 26 2q4 -2 7 -6q1 -2 2 -3.5t1 -3.5l3 -6l4 -11q1 0 3 1z" />
    <glyph glyph-name="Ccedilla" unicode="&#xc7;" horiz-adv-x="409" 
d="M258 557q-11 55 -29 80t-36 26t-42.5 -22t-47.5 -75q-45 -101 -57 -228q-11 -112 19 -203q37 -113 123 -113q44 0 71 23q34 29 57 111q14 51 25 135q1 9 8.5 14.5t16.5 4.5t14.5 -8.5t4.5 -16.5q-12 -86 -27 -141q-26 -95 -71 -133q-38 -33 -99 -33h-9q-21 -71 -75 -115
q-7 -6 -16 -5t-15 8t-5 16t8 15q42 34 60 89q-78 28 -113 135q-32 101 -21 221q13 133 61 242q26 59 60.5 92t72.5 31q39 -2 66 -40t40 -102q1 -9 -4 -16.5t-14 -9t-16.5 3.5t-9.5 14z" />
    <glyph glyph-name="Egrave" unicode="&#xc8;" horiz-adv-x="442" 
d="M51 660q1 9 2 16q1 9 8 15t16 5t15 -8t5 -16l-1 -7q65 8 218 42q9 2 16.5 -2.5t9.5 -13.5t-2.5 -16.5t-13.5 -9.5q-167 -37 -232 -45q-13 -147 -20 -292v-23q153 49 196 59q9 3 16.5 -2t10 -14t-2.5 -16.5t-14 -9.5q-31 -8 -208 -63q-2 -76 0 -131q1 -44 5 -72
q4 -26 9 -34l5 -1q11 -2 30 0q34 3 94 20q41 12 101 32q58 19 69 21q9 3 16.5 -2t10 -14t-2.5 -16.5t-14 -9.5l-65 -21q-74 -24 -103 -32q-64 -18 -102 -22q-25 -3 -42 0q-24 5 -35 21q-10 16 -15 52q-4 30 -5 77q-3 75 3 203q7 151 18 287q-13 5 -14 19q-1 9 4.5 15.5
t13.5 8.5zM124 800q23 -11 93 -39q9 -3 12.5 -11.5t0 -17t-12 -12t-16.5 0.5q-71 28 -95 39q-9 4 -12 12.5t1 17t12.5 11.5t16.5 -1z" />
    <glyph glyph-name="Eacute" unicode="&#xc9;" horiz-adv-x="442" 
d="M51 660q1 9 2 16q1 9 8 15t16 5t15 -8t5 -16l-1 -7q65 8 218 42q9 2 16.5 -2.5t9.5 -13.5t-2.5 -16.5t-13.5 -9.5q-167 -37 -232 -45q-13 -147 -20 -292v-23q153 49 196 59q9 3 16.5 -2t10 -14t-2.5 -16.5t-14 -9.5q-31 -8 -208 -63q-2 -76 0 -131q1 -44 5 -72
q4 -26 9 -34l5 -1q11 -2 30 0q34 3 94 20q41 12 101 32q58 19 69 21q9 3 16.5 -2t10 -14t-2.5 -16.5t-14 -9.5l-65 -21q-74 -24 -103 -32q-64 -18 -102 -22q-25 -3 -42 0q-24 5 -35 21q-10 16 -15 52q-4 30 -5 77q-3 75 3 203q7 151 18 287q-13 5 -14 19q-1 9 4.5 15.5
t13.5 8.5zM120 746l84 72q7 6 16 5t15 -8t5 -16t-8 -15l-82 -70q-7 -6 -16 -5.5t-15 7t-5.5 15.5t6.5 15z" />
    <glyph glyph-name="Ecircumflex" unicode="&#xca;" horiz-adv-x="442" 
d="M51 660q1 9 2 16q1 9 8 15t16 5t15 -8t5 -16l-1 -7q65 8 218 42q9 2 16.5 -2.5t9.5 -13.5t-2.5 -16.5t-13.5 -9.5q-167 -37 -232 -45q-13 -147 -20 -292v-23q153 49 196 59q9 3 16.5 -2t10 -14t-2.5 -16.5t-14 -9.5q-31 -8 -208 -63q-2 -76 0 -131q1 -44 5 -72
q4 -26 9 -34l5 -1q11 -2 30 0q34 3 94 20q41 12 101 32q58 19 69 21q9 3 16.5 -2t10 -14t-2.5 -16.5t-14 -9.5l-65 -21q-74 -24 -103 -32q-64 -18 -102 -22q-25 -3 -42 0q-24 5 -35 21q-10 16 -15 52q-4 30 -5 77q-3 75 3 203q7 151 18 287q-13 5 -14 19q-1 9 4.5 15.5
t13.5 8.5zM93 758q36 58 55 78q30 31 59 17q16 -7 39 -42q37 -56 46 -68q5 -7 3.5 -16t-8.5 -14.5t-16 -4t-15 8.5l-46 69q-16 25 -22 27q3 -1 -8 -8q-16 -16 -49 -71q-5 -7 -14 -9.5t-16.5 2.5t-10 14t2.5 17z" />
    <glyph glyph-name="Edieresis" unicode="&#xcb;" horiz-adv-x="442" 
d="M51 660q1 9 2 16q1 9 8 15t16 5t15 -8t5 -16l-1 -7q65 8 218 42q9 2 16.5 -2.5t9.5 -13.5t-2.5 -16.5t-13.5 -9.5q-167 -37 -232 -45q-13 -147 -20 -292v-23q153 49 196 59q9 3 16.5 -2t10 -14t-2.5 -16.5t-14 -9.5q-31 -8 -208 -63q-2 -76 0 -131q1 -44 5 -72
q4 -26 9 -34l5 -1q11 -2 30 0q34 3 94 20q41 12 101 32q58 19 69 21q9 3 16.5 -2t10 -14t-2.5 -16.5t-14 -9.5l-65 -21q-74 -24 -103 -32q-64 -18 -102 -22q-25 -3 -42 0q-24 5 -35 21q-10 16 -15 52q-4 30 -5 77q-3 75 3 203q7 151 18 287q-13 5 -14 19q-1 9 4.5 15.5
t13.5 8.5zM159 777q0 -9 -6.5 -15.5t-15.5 -6.5t-15.5 6.5t-6.5 15.5t6.5 15.5t15.5 6.5t15.5 -6.5t6.5 -15.5zM267 780q0 -9 -6.5 -15.5t-15.5 -6.5t-15.5 6.5t-6.5 15.5t6.5 15.5t15.5 6.5t15.5 -6.5t6.5 -15.5z" />
    <glyph glyph-name="Igrave" unicode="&#xcc;" horiz-adv-x="276" 
d="M96 688q72 7 119 11q9 1 16 -5t8 -15t-5 -16t-15 -8q-43 -3 -102 -9q0 -396 -4 -601q72 11 105 14q9 1 16 -5t8 -15t-5 -16t-15 -8q-16 -2 -111 -15q-71 -10 -114 -13q-9 -1 -15.5 5.5t-7.5 15.5t5.5 15.5t15.5 7.5q32 2 74 8q4 206 4 602q-66 -6 -93 -9q-9 -1 -16 5
t-8 15t5 16t15 8q16 1 114 11q2 1 5 1h1zM75 817l64 -60q6 -6 6.5 -15t-5.5 -15.5t-15 -7t-16 5.5l-64 60q-7 6 -7 15t6 16t15 7t16 -6z" />
    <glyph glyph-name="Iacute" unicode="&#xcd;" horiz-adv-x="276" 
d="M96 688q72 7 119 11q9 1 16 -5t8 -15t-5 -16t-15 -8q-43 -3 -102 -9q0 -396 -4 -601q72 11 105 14q9 1 16 -5t8 -15t-5 -16t-15 -8q-16 -2 -111 -15q-71 -10 -114 -13q-9 -1 -15.5 5.5t-7.5 15.5t5.5 15.5t15.5 7.5q32 2 74 8q4 206 4 602q-66 -6 -93 -9q-9 -1 -16 5
t-8 15t5 16t15 8q16 1 114 11q2 1 5 1h1zM44 757q31 18 93 72q6 6 15.5 5t15.5 -7.5t5 -16t-8 -15.5q-64 -56 -99 -76q-8 -5 -17 -2.5t-13.5 10.5t-2 17t10.5 13z" />
    <glyph glyph-name="Icircumflex" unicode="&#xce;" horiz-adv-x="276" 
d="M96 688q72 7 119 11q9 1 16 -5t8 -15t-5 -16t-15 -8q-43 -3 -102 -9q0 -396 -4 -601q72 11 105 14q9 1 16 -5t8 -15t-5 -16t-15 -8q-16 -2 -111 -15q-71 -10 -114 -13q-9 -1 -15.5 5.5t-7.5 15.5t5.5 15.5t15.5 7.5q32 2 74 8q4 206 4 602q-66 -6 -93 -9q-9 -1 -16 5
t-8 15t5 16t15 8q16 1 114 11q2 1 5 1h1zM-2 756q20 18 50 50q10 10 15 14q12 9 24 8.5t22 -11.5l11 -15q20 -26 39 -46q6 -6 6 -15.5t-6.5 -15.5t-16 -6t-15.5 7q-21 22 -42 50l-2 3l-3 -4q-31 -32 -52 -51q-7 -6 -16 -6t-15 7t-6 16t7 15z" />
    <glyph glyph-name="Idieresis" unicode="&#xcf;" horiz-adv-x="276" 
d="M96 688q72 7 119 11q9 1 16 -5t8 -15t-5 -16t-15 -8q-43 -3 -102 -9q0 -396 -4 -601q72 11 105 14q9 1 16 -5t8 -15t-5 -16t-15 -8q-16 -2 -111 -15q-71 -10 -114 -13q-9 -1 -15.5 5.5t-7.5 15.5t5.5 15.5t15.5 7.5q32 2 74 8q4 206 4 602q-66 -6 -93 -9q-9 -1 -16 5
t-8 15t5 16t15 8q16 1 114 11q2 1 5 1h1zM58 768q0 -9 -6.5 -15.5t-15.5 -6.5t-15.5 6.5t-6.5 15.5t6.5 15.5t15.5 6.5t15.5 -6.5t6.5 -15.5zM143 768q0 -9 -6.5 -15.5t-15.5 -6.5t-15.5 6.5t-6.5 15.5t6.5 15.5t15.5 6.5t15.5 -6.5t6.5 -15.5z" />
    <glyph glyph-name="Eth" unicode="&#xd0;" horiz-adv-x="441" 
d="M74 416q0 -204 -6 -374q58 32 113 84q53 50 95 113q52 78 75 158q22 81 6 152q-10 51 -46 76.5t-87 27.5q-83 3 -151 -45q1 -78 1 -147q73 10 123 10q9 0 15.5 -6.5t6.5 -15.5t-6.5 -15.5t-15.5 -6.5q-48 0 -122 -10zM30 455q0 58 -1 122q-9 0 -15 6q-7 6 -7 15t6 16
q7 8 16 15q-1 25 -1 51q0 9 6.5 15.5t15.5 6.5t15.5 -6.5t6.5 -15.5v-21q73 41 153 38q65 -3 113 -37t63 -101q17 -83 -8 -172q-24 -88 -80 -172q-54 -81 -125 -142q-72 -62 -147 -92q-8 -4 -16.5 -0.5t-11.5 12.5q-4 8 -1 16t11 12q7 177 7 389q-51 -7 -81 -10q-9 -1 -16 5
t-8 15t5 16t15 8q31 3 85 11z" />
    <glyph glyph-name="Ntilde" unicode="&#xd1;" horiz-adv-x="479" 
d="M31 4q-3 39 -1 92q0 10 1.5 40.5t1.5 46.5q0 12 2 142v17v34v34q1 32 4 52q1 12 3 20q5 15 14 22q9 5 20 2q4 -1 8 -4q3 -3 7 -8q6 -6 14 -18q13 -20 33 -55q11 -17 22 -37l19 -34q7 -12 8 -13q75 -118 155 -218l39 -45l19 -20q2 14 2 34q1 20 0.5 32t-1 26t-0.5 16
q-1 62 -3 171t-3.5 200t-1.5 171q0 9 6.5 15.5t15.5 6.5t15.5 -6.5t6.5 -15.5q0 -80 1.5 -171t3.5 -200t3 -171q0 -1 0.5 -15.5t1 -27t-0.5 -32.5q0 -30 -5 -49q-3 -13 -8 -21q-8 -14 -22 -17q-8 -2 -17 2q-3 1 -7 4l-12 10q-11 10 -27 29q-24 26 -40 46q-85 107 -159 222
q0 2 -7.5 14.5t-19 33.5t-22.5 38l-20 34q0 -10 -1 -24v-35v-32v-17q-2 -130 -2 -142q0 -17 -1.5 -47.5t-1.5 -41.5q-2 -51 1 -86q1 -10 -5 -16.5t-15.5 -7.5t-16 5t-7.5 15zM115 744q32 51 68 54q23 2 57 -19q22 -14 30 -14q14 1 34 30q5 8 14 9.5t16.5 -3.5t9 -14
t-3.5 -16q-33 -49 -69 -50q-22 -1 -55 21q-20 13 -28 12q-15 -1 -37 -34q-4 -8 -13 -9.5t-17 3t-9.5 13.5t3.5 17z" />
    <glyph glyph-name="Ograve" unicode="&#xd2;" horiz-adv-x="453" 
d="M215 674q-52 -13 -88 -109t-40 -224t29 -217q33 -90 91 -95q48 -4 90 46q35 42 57 107q19 56 23.5 134t-10.5 158q-17 82 -55 135t-97 65zM207 718q5 2 11 1q41 -7 74.5 -29.5t56 -55.5t37.5 -70t24 -81q16 -86 11.5 -170t-25.5 -145q-25 -73 -65 -121q-57 -68 -128 -62
q-85 8 -128 123q-36 97 -32 234q4 135 43 238q45 119 119 137q1 1 2 1zM174 822q60 -31 88 -41q8 -4 12 -12t0.5 -16.5t-11.5 -12.5t-17 -1q-30 12 -92 45q-8 4 -11 12.5t1.5 16.5t13 11t16.5 -2z" />
    <glyph glyph-name="Oacute" unicode="&#xd3;" horiz-adv-x="453" 
d="M215 674q-52 -13 -88 -109t-40 -224t29 -217q33 -90 91 -95q48 -4 90 46q35 42 57 107q19 56 23.5 134t-10.5 158q-17 82 -55 135t-97 65zM207 718q5 2 11 1q41 -7 74.5 -29.5t56 -55.5t37.5 -70t24 -81q16 -86 11.5 -170t-25.5 -145q-25 -73 -65 -121q-57 -68 -128 -62
q-85 8 -128 123q-36 97 -32 234q4 135 43 238q45 119 119 137q1 1 2 1zM155 786l94 79q7 6 16 5t15 -8t5 -16t-8 -15l-94 -79q-7 -6 -16 -5t-15 8t-5 16t8 15z" />
    <glyph glyph-name="Ocircumflex" unicode="&#xd4;" horiz-adv-x="453" 
d="M215 674q-52 -13 -88 -109t-40 -224t29 -217q33 -90 91 -95q48 -4 90 46q35 42 57 107q19 56 23.5 134t-10.5 158q-17 82 -55 135t-97 65zM207 718q5 2 11 1q41 -7 74.5 -29.5t56 -55.5t37.5 -70t24 -81q16 -86 11.5 -170t-25.5 -145q-25 -73 -65 -121q-57 -68 -128 -62
q-85 8 -128 123q-36 97 -32 234q4 135 43 238q45 119 119 137q1 1 2 1zM126 774q33 46 48 61q24 26 48 23q18 -1 45 -24q3 -2 22 -18.5t33 -27.5q7 -6 8 -15t-5 -16t-15 -8t-16 5q-14 11 -33 27.5t-22 18.5q-16 14 -21 15q-4 -1 -13 -10q-10 -11 -43 -57q-5 -7 -14 -8.5
t-16.5 3.5t-9 14t3.5 17z" />
    <glyph glyph-name="Otilde" unicode="&#xd5;" horiz-adv-x="453" 
d="M215 674q-52 -13 -88 -109t-40 -224t29 -217q33 -90 91 -95q48 -4 90 46q35 42 57 107q19 56 23.5 134t-10.5 158q-17 82 -55 135t-97 65zM207 718q5 2 11 1q41 -7 74.5 -29.5t56 -55.5t37.5 -70t24 -81q16 -86 11.5 -170t-25.5 -145q-25 -73 -65 -121q-57 -68 -128 -62
q-85 8 -128 123q-36 97 -32 234q4 135 43 238q45 119 119 137q1 1 2 1zM103 762q33 49 67 58q26 6 59 -11q26 -14 34 -14q15 -1 34 19q6 7 15 7t16 -6t7 -15t-6 -16q-33 -36 -69 -33q-17 1 -51 19q-19 9 -28 7q-18 -5 -42 -39q-5 -8 -14 -9.5t-16.5 3.5t-9 14t3.5 16z" />
    <glyph glyph-name="Odieresis" unicode="&#xd6;" horiz-adv-x="453" 
d="M215 674q-52 -13 -88 -109t-40 -224t29 -217q33 -90 91 -95q48 -4 90 46q35 42 57 107q19 56 23.5 134t-10.5 158q-17 82 -55 135t-97 65zM207 718q5 2 11 1q41 -7 74.5 -29.5t56 -55.5t37.5 -70t24 -81q16 -86 11.5 -170t-25.5 -145q-25 -73 -65 -121q-57 -68 -128 -62
q-85 8 -128 123q-36 97 -32 234q4 135 43 238q45 119 119 137q1 1 2 1zM202 779q0 -9 -6.5 -15.5t-15.5 -6.5t-15.5 6.5t-6.5 15.5t6.5 15.5t15.5 6.5t15.5 -6.5t6.5 -15.5zM291 775q0 -9 -6.5 -15.5t-15.5 -6.5t-15.5 6.5t-6.5 15.5t6.5 15.5t15.5 6.5t15.5 -6.5t6.5 -15.5
z" />
    <glyph glyph-name="multiply" unicode="&#xd7;" horiz-adv-x="472" 
d="M304 206q-58 -62 -94 -96q-7 -6 -16 -6t-15 7t-6 16t7 15q35 33 91 94l-85 76q-7 6 -8 15.5t5 16t15.5 7.5t15.5 -5l87 -78q51 55 85 87q7 6 16 6t15 -7t6 -16t-7 -15q-33 -31 -83 -85q63 -59 99 -102q6 -7 5 -16t-8 -15t-16 -5t-15 8q-34 41 -94 98z" />
    <glyph glyph-name="Oslash" unicode="&#xd8;" horiz-adv-x="453" 
d="M374 430l-272 -261q6 -24 14 -45q33 -90 91 -95q48 -4 90 46q35 42 57 107q16 47 22 112t-2 136zM365 482q-17 79 -54.5 130t-95.5 62q-52 -13 -88 -109t-40 -224q-2 -63 6 -120l270 260q1 0 2 1zM207 718q5 2 11 1q41 -7 74.5 -29.5t56 -55.5t37.5 -70t24 -81
q16 -86 11.5 -170t-25.5 -145q-25 -73 -65 -121q-57 -68 -128 -62q-85 8 -128 123q-36 97 -32 234q4 135 43 238q45 119 119 137q1 1 2 1z" />
    <glyph glyph-name="Ugrave" unicode="&#xd9;" horiz-adv-x="457" 
d="M107 679q-28 -292 41 -520q18 -60 41 -94q31 -47 68 -45q42 2 76 78q32 71 52 196q15 101 20 209t1 164q-1 10 5 16.5t15.5 7.5t16 -5t7.5 -15q4 -59 -1 -169t-21 -215q-20 -130 -55 -207q-45 -100 -114 -104q-62 -4 -107 64q-26 39 -46 107q-72 237 -43 536q1 9 8 15
t16 5t15 -8t5 -16zM237 798q37 -39 104 -75q8 -4 10.5 -13t-2 -17t-13.5 -10.5t-17 2.5q-72 39 -114 83q-6 6 -6 15t6.5 15.5t15.5 6.5t16 -7z" />
    <glyph glyph-name="Uacute" unicode="&#xda;" horiz-adv-x="457" 
d="M107 679q-28 -292 41 -520q18 -60 41 -94q31 -47 68 -45q42 2 76 78q32 71 52 196q15 101 20 209t1 164q-1 10 5 16.5t15.5 7.5t16 -5t7.5 -15q4 -59 -1 -169t-21 -215q-20 -130 -55 -207q-45 -100 -114 -104q-62 -4 -107 64q-26 39 -46 107q-72 237 -43 536q1 9 8 15
t16 5t15 -8t5 -16zM192 741q18 9 35 19l42 26l34 21q7 5 16 2.5t14 -10t2.5 -16.5t-10.5 -14l-34 -21l-43 -27q-18 -11 -36 -20q-8 -4 -16.5 -1t-13 11t-1.5 16.5t11 13.5z" />
    <glyph glyph-name="Ucircumflex" unicode="&#xdb;" horiz-adv-x="457" 
d="M107 679q-28 -292 41 -520q18 -60 41 -94q31 -47 68 -45q42 2 76 78q32 71 52 196q15 101 20 209t1 164q-1 10 5 16.5t15.5 7.5t16 -5t7.5 -15q4 -59 -1 -169t-21 -215q-20 -130 -55 -207q-45 -100 -114 -104q-62 -4 -107 64q-26 39 -46 107q-72 237 -43 536q1 9 8 15
t16 5t15 -8t5 -16zM157 749l40 39q22 23 29 29q13 12 22 17q17 8 32 0q9 -5 18 -19q2 -3 14 -23q23 -40 51 -74q6 -7 5 -16t-8 -15t-16 -5t-15 8q-30 37 -55 80q-11 19 -12 20q-3 -2 -6 -5q-7 -6 -29 -29l-40 -39q-6 -6 -15.5 -6t-15.5 6.5t-6 16t7 15.5z" />
    <glyph glyph-name="Udieresis" unicode="&#xdc;" horiz-adv-x="457" 
d="M107 679q-28 -292 41 -520q18 -60 41 -94q31 -47 68 -45q42 2 76 78q32 71 52 196q15 101 20 209t1 164q-1 10 5 16.5t15.5 7.5t16 -5t7.5 -15q4 -59 -1 -169t-21 -215q-20 -130 -55 -207q-45 -100 -114 -104q-62 -4 -107 64q-26 39 -46 107q-72 237 -43 536q1 9 8 15
t16 5t15 -8t5 -16zM227 769q0 -9 -6.5 -15.5t-15.5 -6.5t-15.5 6.5t-6.5 15.5t6.5 15.5t15.5 6.5t15.5 -6.5t6.5 -15.5zM341 768q0 -9 -6.5 -15.5t-15.5 -6.5t-15.5 6.5t-6.5 15.5t6.5 15.5t15.5 6.5t15.5 -6.5t6.5 -15.5z" />
    <glyph glyph-name="Yacute" unicode="&#xdd;" horiz-adv-x="463" 
d="M92 696q1 -7 2 -22.5t2.5 -41t3.5 -45.5q8 -97 20 -169q17 -97 39 -140q12 -21 24 -27q8 -5 21 1q14 8 35 45q18 33 40 87l22 62q12 32 22 64l12 37q5 13 17 56q11 36 20 57q0 1 2 7q2 8 4 12q4 9 9 14q8 9 20 7q11 -1 17 -11q4 -5 5 -13v-9q1 -10 1 -27q0 -27 -1 -74
q0 -1 -4 -118q-3 -94 -3 -438q0 -9 -6.5 -15.5t-15.5 -6.5t-15.5 6.5t-6.5 15.5q0 345 3 440v18q1 18 2 42t1 47l-7 -24l-12 -38l-22 -65l-23 -62q-23 -57 -43 -93q-27 -48 -53 -61q-32 -18 -62 -2q-23 12 -41 45q-27 51 -45 154q-12 71 -20 172q-1 21 -3 45.5t-3 40
t-2 21.5q-1 9 4.5 16.5t14.5 8.5t16.5 -4.5t8.5 -14.5zM202 705q12 13 36 43l37 44q6 6 15 6.5t15.5 -5.5t7 -15t-5.5 -16q-13 -14 -36.5 -43.5t-36.5 -43.5q-6 -6 -15 -7t-15.5 5.5t-7.5 15.5t6 16z" />
    <glyph glyph-name="Thorn" unicode="&#xde;" horiz-adv-x="415" 
d="M101 78q0 -102 -5 -194q-1 -9 -7.5 -15t-15.5 -5.5t-15 7t-6 15.5q12 227 -8 531q-1 23 -3.5 67.5t-4.5 72t-6 66t-9 69.5q-1 9 4 16.5t14 9t16.5 -3.5t9.5 -14q11 -69 18 -195q58 58 134 72q59 10 101 -14q49 -28 61 -96q19 -106 -86 -231q-41 -49 -93 -91t-99 -67z
M100 128q90 54 159 136q92 110 76 195q-8 48 -39 66q-28 16 -71 8q-42 -7 -81 -34t-57 -60l1 -20q11 -158 12 -291z" />
    <glyph glyph-name="germandbls" unicode="&#xdf;" horiz-adv-x="504" 
d="M77 140q17 23 50 29q9 1 16.5 -4t9 -14t-3.5 -16.5t-14 -9.5q-24 -4 -25 -21q-1 -20 22 -36q50 -30 103.5 -26.5t101.5 37t72 84.5q18 37 16 76t-17.5 71t-46.5 55t-71 28q-8 1 -34 0q-28 -1 -34 -3q-2 0 -14 -9q-19 -15 -37 -12q-5 1 -10 4q-11 8 -10 21q1 7 6 13
q1 2 4 5t15 10q27 16 40 29q51 48 71 85q23 42 9.5 82t-56.5 51q-54 13 -101 -38q-40 -43 -61 -111q-19 -61 -22 -128q-4 -68 2 -122.5t19 -129.5zM56 12q-3 19 -13 71t-14 76.5t-10.5 71t-7.5 77.5t-0.5 72t7.5 78.5t18 75.5q24 77 71 127q64 70 143 50q35 -8 57.5 -30
t31 -49.5t5 -58.5t-18.5 -59q-18 -33 -60 -76q22 0 31 -1q51 -7 91.5 -36.5t59.5 -71t22 -90.5t-20 -94q-28 -61 -86 -101.5t-124.5 -46t-130.5 34.5q-7 4 -12 9l4 -21q1 -9 -4 -16.5t-14 -9t-16.5 3.5t-9.5 14z" />
    <glyph glyph-name="agrave" unicode="&#xe0;" horiz-adv-x="407" 
d="M323 328l-13 -36q-36 -99 -88 -177q-40 -59 -77 -81q-54 -32 -100 4q-50 38 -48 124q2 77 42 158q42 85 112 138.5t154 40.5q9 -2 14 -8.5t5 -14.5q4 1 9 0q9 -1 14 -8q2 -2 4 -5q3 -5 5 -16q1 -6 3 -17q2 -17 4 -45q3 -34 5 -74q0 -6 2 -132q2 -117 4 -171q0 -9 -6 -16
t-15 -7t-16 6t-7 15q-2 53 -4 173q-2 124 -2 130q0 9 -1 19zM299 455q-65 10 -124 -34t-96 -120q-36 -74 -38 -140q-1 -64 30 -89q23 -17 51 0q30 17 63 67q50 74 83 167t34 98q3 11 4 37q0 10 1 15q-4 -1 -8 -1zM172 651q20 -14 92 -74q7 -6 8 -15t-5 -16t-15 -8t-16 5
q-71 59 -90 72q-7 5 -8.5 14t3.5 16.5t14 9t17 -3.5z" />
    <glyph glyph-name="aacute" unicode="&#xe1;" horiz-adv-x="407" 
d="M323 328l-13 -36q-36 -99 -88 -177q-40 -59 -77 -81q-54 -32 -100 4q-50 38 -48 124q2 77 42 158q42 85 112 138.5t154 40.5q9 -2 14 -8.5t5 -14.5q4 1 9 0q9 -1 14 -8q2 -2 4 -5q3 -5 5 -16q1 -6 3 -17q2 -17 4 -45q3 -34 5 -74q0 -6 2 -132q2 -117 4 -171q0 -9 -6 -16
t-15 -7t-16 6t-7 15q-2 53 -4 173q-2 124 -2 130q0 9 -1 19zM299 455q-65 10 -124 -34t-96 -120q-36 -74 -38 -140q-1 -64 30 -89q23 -17 51 0q30 17 63 67q50 74 83 167t34 98q3 11 4 37q0 10 1 15q-4 -1 -8 -1zM186 559l96 97q7 6 16 6t15.5 -6.5t6.5 -15.5t-6 -16
q-11 -10 -30 -30l-36 -35l-30 -30q-6 -7 -15.5 -7t-16 6t-6.5 15.5t6 15.5z" />
    <glyph glyph-name="acircumflex" unicode="&#xe2;" horiz-adv-x="407" 
d="M323 328l-13 -36q-36 -99 -88 -177q-40 -59 -77 -81q-54 -32 -100 4q-50 38 -48 124q2 77 42 158q42 85 112 138.5t154 40.5q9 -2 14 -8.5t5 -14.5q4 1 9 0q9 -1 14 -8q2 -2 4 -5q3 -5 5 -16q1 -6 3 -17q2 -17 4 -45q3 -34 5 -74q0 -6 2 -132q2 -117 4 -171q0 -9 -6 -16
t-15 -7t-16 6t-7 15q-2 53 -4 173q-2 124 -2 130q0 9 -1 19zM299 455q-65 10 -124 -34t-96 -120q-36 -74 -38 -140q-1 -64 30 -89q23 -17 51 0q30 17 63 67q50 74 83 167t34 98q3 11 4 37q0 10 1 15q-4 -1 -8 -1zM133 585q15 19 52 72q12 17 18 23q12 12 25 14q15 3 30 -9
q8 -7 19 -22q7 -9 25 -36l28 -43q5 -7 3.5 -16t-9 -14t-16.5 -3.5t-14 9.5q-11 15 -28.5 41.5t-24.5 35.5q-4 7 -8 11q-4 -5 -12 -16q-38 -55 -54 -75q-5 -7 -14.5 -8t-16.5 4.5t-8 15t5 16.5z" />
    <glyph glyph-name="atilde" unicode="&#xe3;" horiz-adv-x="407" 
d="M323 328l-13 -36q-36 -99 -88 -177q-40 -59 -77 -81q-54 -32 -100 4q-50 38 -48 124q2 77 42 158q42 85 112 138.5t154 40.5q9 -2 14 -8.5t5 -14.5q4 1 9 0q9 -1 14 -8q2 -2 4 -5q3 -5 5 -16q1 -6 3 -17q2 -17 4 -45q3 -34 5 -74q0 -6 2 -132q2 -117 4 -171q0 -9 -6 -16
t-15 -7t-16 6t-7 15q-2 53 -4 173q-2 124 -2 130q0 9 -1 19zM299 455q-65 10 -124 -34t-96 -120q-36 -74 -38 -140q-1 -64 30 -89q23 -17 51 0q30 17 63 67q50 74 83 167t34 98q3 11 4 37q0 10 1 15q-4 -1 -8 -1zM121 589q42 48 79 51q27 3 57 -21q22 -18 27 -19q9 -2 28 19
q6 6 15 6.5t15.5 -5.5t7 -15t-5.5 -16q-35 -39 -69 -32q-16 3 -46 28q-15 13 -25 12q-19 -2 -51 -38q-6 -6 -15 -7t-15.5 5.5t-7.5 15.5t6 16z" />
    <glyph glyph-name="adieresis" unicode="&#xe4;" horiz-adv-x="407" 
d="M323 328l-13 -36q-36 -99 -88 -177q-40 -59 -77 -81q-54 -32 -100 4q-50 38 -48 124q2 77 42 158q42 85 112 138.5t154 40.5q9 -2 14 -8.5t5 -14.5q4 1 9 0q9 -1 14 -8q2 -2 4 -5q3 -5 5 -16q1 -6 3 -17q2 -17 4 -45q3 -34 5 -74q0 -6 2 -132q2 -117 4 -171q0 -9 -6 -16
t-15 -7t-16 6t-7 15q-2 53 -4 173q-2 124 -2 130q0 9 -1 19zM299 455q-65 10 -124 -34t-96 -120q-36 -74 -38 -140q-1 -64 30 -89q23 -17 51 0q30 17 63 67q50 74 83 167t34 98q3 11 4 37q0 10 1 15q-4 -1 -8 -1zM205 569q0 -9 -6.5 -15.5t-15.5 -6.5t-15.5 6.5t-6.5 15.5
t6.5 15.5t15.5 6.5t15.5 -6.5t6.5 -15.5zM302 568q0 -9 -6.5 -15.5t-15.5 -6.5t-15.5 6.5t-6.5 15.5t6.5 15.5t15.5 6.5t15.5 -6.5t6.5 -15.5z" />
    <glyph glyph-name="aring" unicode="&#xe5;" horiz-adv-x="407" 
d="M323 328l-13 -36q-36 -99 -88 -177q-40 -59 -77 -81q-54 -32 -100 4q-50 38 -48 124q2 77 42 158q42 85 112 138.5t154 40.5q9 -2 14 -8.5t5 -14.5q4 1 9 0q9 -1 14 -8q2 -2 4 -5q3 -5 5 -16q1 -6 3 -17q2 -17 4 -45q3 -34 5 -74q0 -6 2 -132q2 -117 4 -171q0 -9 -6 -16
t-15 -7t-16 6t-7 15q-2 53 -4 173q-2 124 -2 130q0 9 -1 19zM236 570q55 23 76 51q9 11 8 16q0 1 -4 3q-19 10 -48 4q-21 -4 -38 -19t-20 -30q-3 -10 4 -16q6 -6 22 -9zM213 531q-17 5 -29 15q-26 23 -17 59q7 29 33 52.5t60 30.5q44 9 77 -9q23 -13 26.5 -35.5t-15.5 -48.5
q-22 -29 -65 -52q-1 -8 -7.5 -13.5t-14.5 -5.5q-10 0 -20 1l-3 -1q-15 -7 -25 7zM299 455q-65 10 -124 -34t-96 -120q-36 -74 -38 -140q-1 -64 30 -89q23 -17 51 0q30 17 63 67q50 74 83 167t34 98q3 11 4 37q0 10 1 15q-4 -1 -8 -1z" />
    <glyph glyph-name="ae" unicode="&#xe6;" horiz-adv-x="623" 
d="M363 204q11 2 22.5 7t18.5 10l25 17q49 35 67 90q17 55 2 97q-13 37 -44 39q-38 1 -92 -48q2 -21 1 -54q0 -14 -0.5 -45t-0.5 -48t1 -50v-15zM319 317l-9 -25q-35 -98 -88 -177q-40 -59 -77 -81q-54 -32 -100 4q-50 38 -48 124q2 77 42 158q42 85 112 138.5t154 40.5
q9 -2 14 -8.5t5 -14.5q4 1 9 0q9 -1 14 -8l4 -4q56 46 105 44q30 -2 51.5 -20.5t31.5 -47.5q21 -56 -1 -125.5t-83 -112.5q-1 -1 -7 -6l-8 -5l-8 -5q-6 -4 -8.5 -5.5t-8 -4.5t-9 -4.5t-8.5 -3.5l-10 -4l-10 -2l-12 -2q5 -42 14 -69q16 -47 49 -49q28 -2 63 30q18 16 59 68
q5 7 14.5 8t16.5 -4.5t8 -15t-5 -16.5q-43 -54 -63 -73q-49 -45 -97 -41q-61 5 -86 79q-18 49 -20 141q-1 37 0 99zM299 455q-65 10 -124 -34t-96 -120q-36 -74 -38 -140q-1 -64 30 -89q23 -17 51 0q30 17 63 67q50 74 83 167t34 98q3 11 4 37q0 10 1 15q-4 -1 -8 -1z" />
    <glyph glyph-name="ccedilla" unicode="&#xe7;" horiz-adv-x="372" 
d="M223 452q-48 -6 -95 -70q-46 -63 -68 -148q-22 -86 -7 -143q15 -56 65 -59q69 -5 131 83q37 53 64 119q3 9 11.5 12.5t17 0t12 -12t-0.5 -16.5q-28 -71 -68 -129q-67 -95 -147 -101q-6 -29 -21 -50.5t-41 -46.5q-6 -6 -15.5 -6t-15.5 6.5t-6 16t7 15.5q39 38 48 68
q-64 15 -84 89q-18 68 7 165q25 93 76 163q59 80 124 88q9 1 16.5 -4.5t8.5 -14.5t-4.5 -16.5t-14.5 -8.5z" />
    <glyph glyph-name="egrave" unicode="&#xe8;" horiz-adv-x="382" 
d="M277 392q0 1 -1 1q-2 8 -10 17q-19 24 -47 37q-31 16 -58 9q-33 -8 -57 -49q-32 -55 -39 -135l85 45q57 31 92 52q19 11 29 19zM20 200q-3 -1 -5 -2q-9 -4 -17.5 -0.5t-12 12t0 17t11.5 11.5q7 3 22 11q4 106 47 180q33 57 84 69q43 11 88 -11q38 -18 63 -49
q12 -15 17 -29q7 -20 0 -35q-3 -6 -10 -13q-4 -4 -11 -9l-33 -21l-92 -53l-109 -57q2 -44 12 -80q14 -48 42 -76.5t61.5 -35t68.5 10t64 56.5q5 7 14 8.5t16.5 -3.5t9 -14t-3.5 -17q-36 -49 -82.5 -71t-94.5 -12q-47 9 -83.5 46t-53.5 96q-10 33 -13 71zM118 639
q38 -28 85 -57q7 -5 9 -14t-2.5 -16.5t-13.5 -9.5t-17 2q-48 31 -87 59q-7 6 -8.5 15t4 16t14.5 8.5t16 -3.5z" />
    <glyph glyph-name="eacute" unicode="&#xe9;" horiz-adv-x="382" 
d="M277 392q0 1 -1 1q-2 8 -10 17q-19 24 -47 37q-31 16 -58 9q-33 -8 -57 -49q-32 -55 -39 -135l85 45q57 31 92 52q19 11 29 19zM20 200q-3 -1 -5 -2q-9 -4 -17.5 -0.5t-12 12t0 17t11.5 11.5q7 3 22 11q4 106 47 180q33 57 84 69q43 11 88 -11q38 -18 63 -49
q12 -15 17 -29q7 -20 0 -35q-3 -6 -10 -13q-4 -4 -11 -9l-33 -21l-92 -53l-109 -57q2 -44 12 -80q14 -48 42 -76.5t61.5 -35t68.5 10t64 56.5q5 7 14 8.5t16.5 -3.5t9 -14t-3.5 -17q-36 -49 -82.5 -71t-94.5 -12q-47 9 -83.5 46t-53.5 96q-10 33 -13 71zM122 581q11 8 23 18
t19 17l22 22q14 15 20 22q7 6 16 6t15.5 -6.5t6.5 -15.5t-6 -16q-6 -5 -20 -20l-23 -23q-8 -8 -21.5 -20t-25.5 -20q-8 -5 -17 -3.5t-14 9t-3.5 16.5t8.5 14z" />
    <glyph glyph-name="ecircumflex" unicode="&#xea;" horiz-adv-x="382" 
d="M277 392q0 1 -1 1q-2 8 -10 17q-19 24 -47 37q-31 16 -58 9q-33 -8 -57 -49q-32 -55 -39 -135l85 45q57 31 92 52q19 11 29 19zM20 200q-3 -1 -5 -2q-9 -4 -17.5 -0.5t-12 12t0 17t11.5 11.5q7 3 22 11q4 106 47 180q33 57 84 69q43 11 88 -11q38 -18 63 -49
q12 -15 17 -29q7 -20 0 -35q-3 -6 -10 -13q-4 -4 -11 -9l-33 -21l-92 -53l-109 -57q2 -44 12 -80q14 -48 42 -76.5t61.5 -35t68.5 10t64 56.5q5 7 14 8.5t16.5 -3.5t9 -14t-3.5 -17q-36 -49 -82.5 -71t-94.5 -12q-47 9 -83.5 46t-53.5 96q-10 33 -13 71zM93 558q39 61 46 70
q23 30 46 26q11 -1 22 -10q6 -5 18 -17q30 -29 53 -47q7 -5 8 -14t-4.5 -16.5t-14.5 -8.5t-17 5q-24 19 -56 50q-10 10 -14 13q-3 -3 -6 -8q-6 -7 -45 -67q-5 -8 -13.5 -9.5t-16.5 3.5t-9.5 13.5t3.5 16.5z" />
    <glyph glyph-name="edieresis" unicode="&#xeb;" horiz-adv-x="382" 
d="M277 392q0 1 -1 1q-2 8 -10 17q-19 24 -47 37q-31 16 -58 9q-33 -8 -57 -49q-32 -55 -39 -135l85 45q57 31 92 52q19 11 29 19zM20 200q-3 -1 -5 -2q-9 -4 -17.5 -0.5t-12 12t0 17t11.5 11.5q7 3 22 11q4 106 47 180q33 57 84 69q43 11 88 -11q38 -18 63 -49
q12 -15 17 -29q7 -20 0 -35q-3 -6 -10 -13q-4 -4 -11 -9l-33 -21l-92 -53l-109 -57q2 -44 12 -80q14 -48 42 -76.5t61.5 -35t68.5 10t64 56.5q5 7 14 8.5t16.5 -3.5t9 -14t-3.5 -17q-36 -49 -82.5 -71t-94.5 -12q-47 9 -83.5 46t-53.5 96q-10 33 -13 71zM136 568
q0 -9 -6.5 -15.5t-15.5 -6.5t-15.5 6.5t-6.5 15.5t6.5 15.5t15.5 6.5t15.5 -6.5t6.5 -15.5zM238 566q0 -9 -6.5 -15.5t-15.5 -6.5t-15.5 6.5t-6.5 15.5t6.5 15.5t15.5 6.5t15.5 -6.5t6.5 -15.5z" />
    <glyph glyph-name="igrave" unicode="&#xec;" horiz-adv-x="139" 
d="M82 456v-452q0 -9 -6.5 -15.5t-15.5 -6.5t-15.5 6.5t-6.5 15.5v452q0 9 6.5 15.5t15.5 6.5t15.5 -6.5t6.5 -15.5zM50 630q14 -24 52 -77q5 -8 3.5 -17t-9 -14t-16.5 -3.5t-14 8.5q-39 55 -54 81q-5 8 -2.5 17t10.5 13.5t17 2t13 -10.5z" />
    <glyph glyph-name="iacute" unicode="&#xed;" horiz-adv-x="175" 
d="M82 456v-452q0 -9 -6.5 -15.5t-15.5 -6.5t-15.5 6.5t-6.5 15.5v452q0 9 6.5 15.5t15.5 6.5t15.5 -6.5t6.5 -15.5zM28 537l23 34l27 39l24 34q5 8 14 9.5t16.5 -3.5t9 -14t-3.5 -16q-3 -4 -31 -44.5t-41 -62.5q-5 -7 -14 -9t-16.5 2.5t-9.5 13.5t2 17z" />
    <glyph glyph-name="icircumflex" unicode="&#xee;" horiz-adv-x="185" 
d="M81 456v-452q0 -9 -6.5 -15.5t-15.5 -6.5t-15.5 6.5t-6.5 15.5v452q0 9 6.5 15.5t15.5 6.5t15.5 -6.5t6.5 -15.5zM-15 558q9 10 16 20l15 18q7 9 10 12q9 11 15 16q11 10 23 11q13 1 25 -8q7 -6 16 -17l10 -13l15 -21q9 -12 17 -22q5 -7 3.5 -16t-8.5 -14.5t-16 -4
t-15 8.5l-16 22q-8 12 -14 20l-10 12q-3 3 -5 6q-2 -3 -6 -8q-3 -3 -10 -12l-15 -19q-8 -10 -16 -19q-6 -7 -15 -8t-16 5t-8 15t5 16z" />
    <glyph glyph-name="idieresis" unicode="&#xef;" horiz-adv-x="161" 
d="M80 456v-452q0 -9 -6.5 -15.5t-15.5 -6.5t-15.5 6.5t-6.5 15.5v452q0 9 6.5 15.5t15.5 6.5t15.5 -6.5t6.5 -15.5zM48 552q0 -9 -6.5 -15.5t-15.5 -6.5t-15.5 6.5t-6.5 15.5t6.5 15.5t15.5 6.5t15.5 -6.5t6.5 -15.5zM126 558q0 -9 -6.5 -15.5t-15.5 -6.5t-15.5 6.5
t-6.5 15.5t6.5 15.5t15.5 6.5t15.5 -6.5t6.5 -15.5z" />
    <glyph glyph-name="eth" unicode="&#xf0;" horiz-adv-x="372" 
d="M226 327q-39 -22 -69 -49q-40 -37 -60 -74.5t-19 -82.5q1 -33 24 -49q22 -15 60 -14t73.5 17.5t51.5 39.5q17 26 5 74q-8 32 -34 82q-14 28 -32 56zM143 430l-81 -78q-7 -6 -16 -6t-15.5 6.5t-6.5 15.5t6 16l81 77q-47 41 -96 68q-8 4 -11 12.5t1.5 16.5t13 11t16.5 -2
q57 -30 109 -77l59 51q7 6 16 5t15 -8t5 -16t-8 -15l-55 -47q19 -20 36 -40q15 -18 28 -36l44 18q9 3 17.5 -1t11.5 -12.5t-1 -17t-12 -11.5q-18 -6 -34 -13q17 -28 32 -56q27 -54 37 -92q16 -66 -12 -108q-22 -34 -67.5 -55t-91.5 -22q-53 -2 -87 22q-41 28 -43 83
q-3 103 93 191q32 30 74 53q-11 15 -23 29q-16 20 -35 38z" />
    <glyph glyph-name="ntilde" unicode="&#xf1;" horiz-adv-x="414" 
d="M66 471q-5 -155 -2 -287q42 154 118 240q40 45 77 53q38 7 67 -23q41 -42 52 -140q4 -35 6 -109v-191q0 -9 -6.5 -15.5t-15.5 -6.5t-15.5 6.5t-6.5 15.5v189q-2 71 -6 107q-9 82 -39 113q-13 13 -27 10q-23 -4 -54 -39q-75 -85 -115 -250q-5 -24 -16 -114v-2v-3
q1 -3 1 -7q1 -24 -16 -33q-10 -6 -20 -2q-11 4 -15 15q-2 6 -2 15q1 4 1 7v4v1q-8 52 -11 133q-5 145 1 315q0 9 7 15t16 6t15 -7t6 -16zM85 564q36 40 70 41q21 1 53 -18q21 -12 32 -11q21 0 50 28q7 6 16 6t15 -7t6 -16t-7 -15q-41 -39 -78 -40q-24 -1 -56 17
q-21 12 -29 12q-16 0 -40 -27q-6 -6 -15 -6.5t-15.5 5.5t-7 15t5.5 16z" />
    <glyph glyph-name="ograve" unicode="&#xf2;" 
d="M177 494q8 5 17 2q53 -18 90 -60t52.5 -92.5t15.5 -105.5q0 -84 -36.5 -154t-103.5 -89q-78 -23 -133 45q-46 56 -57 151q-7 60 3 118.5t42.5 111t85.5 77.5q13 6 24 -4zM171 458q-60 -28 -88 -102q-27 -74 -17 -160q9 -84 47 -129q37 -44 87 -30q48 14 78 70.5t30 130.5
q0 76 -33 135.5t-95 80.5q-4 2 -8 5q0 -1 -1 -1zM125 636q24 -28 66 -64q7 -6 8 -15t-5 -16t-15 -8t-16 5q-45 38 -72 70q-6 7 -5 16t8 15t16 5t15 -8z" />
    <glyph glyph-name="oacute" unicode="&#xf3;" 
d="M177 494q8 5 17 2q53 -18 90 -60t52.5 -92.5t15.5 -105.5q0 -84 -36.5 -154t-103.5 -89q-78 -23 -133 45q-46 56 -57 151q-7 60 3 118.5t42.5 111t85.5 77.5q13 6 24 -4zM171 458q-60 -28 -88 -102q-27 -74 -17 -160q9 -84 47 -129q37 -44 87 -30q48 14 78 70.5t30 130.5
q0 76 -33 135.5t-95 80.5q-4 2 -8 5q0 -1 -1 -1zM121 553q22 30 86 101q6 6 15 6.5t15.5 -5.5t7 -15t-5.5 -16q-62 -69 -82 -97q-6 -7 -15 -8.5t-16 4t-8.5 14.5t3.5 16z" />
    <glyph glyph-name="ocircumflex" unicode="&#xf4;" 
d="M177 494q8 5 17 2q53 -18 90 -60t52.5 -92.5t15.5 -105.5q0 -84 -36.5 -154t-103.5 -89q-78 -23 -133 45q-46 56 -57 151q-7 60 3 118.5t42.5 111t85.5 77.5q13 6 24 -4zM171 458q-60 -28 -88 -102q-27 -74 -17 -160q9 -84 47 -129q37 -44 87 -30q48 14 78 70.5t30 130.5
q0 76 -33 135.5t-95 80.5q-4 2 -8 5q0 -1 -1 -1zM74 534q46 68 60 85q12 14 22 19q17 9 33 0q8 -5 17 -18q2 -2 6 -9t7 -10q18 -29 42 -48q7 -6 8 -15t-5 -16t-15 -8t-16 5q-29 24 -51 58l-11 17l-3 -4q-13 -15 -58 -80q-5 -8 -14 -9.5t-16.5 3.5t-9 14t3.5 16z" />
    <glyph glyph-name="otilde" unicode="&#xf5;" 
d="M177 494q8 5 17 2q53 -18 90 -60t52.5 -92.5t15.5 -105.5q0 -84 -36.5 -154t-103.5 -89q-78 -23 -133 45q-46 56 -57 151q-7 60 3 118.5t42.5 111t85.5 77.5q13 6 24 -4zM171 458q-60 -28 -88 -102q-27 -74 -17 -160q9 -84 47 -129q37 -44 87 -30q48 14 78 70.5t30 130.5
q0 76 -33 135.5t-95 80.5q-4 2 -8 5q0 -1 -1 -1zM73 567q44 49 76 57q27 6 53 -16q13 -13 15 -13q8 -1 30 22q6 7 15.5 7t16 -6t6.5 -15.5t-6 -15.5q-37 -39 -67 -36q-4 1 -9 2.5t-8.5 3.5t-7.5 5l-6 5q-3 2 -6 5l-3 3q-8 7 -13 6q-18 -5 -54 -44q-6 -6 -15 -6.5t-15.5 5.5
t-7 15t5.5 16z" />
    <glyph glyph-name="odieresis" unicode="&#xf6;" 
d="M177 494q8 5 17 2q53 -18 90 -60t52.5 -92.5t15.5 -105.5q0 -84 -36.5 -154t-103.5 -89q-78 -23 -133 45q-46 56 -57 151q-7 60 3 118.5t42.5 111t85.5 77.5q13 6 24 -4zM171 458q-60 -28 -88 -102q-27 -74 -17 -160q9 -84 47 -129q37 -44 87 -30q48 14 78 70.5t30 130.5
q0 76 -33 135.5t-95 80.5q-4 2 -8 5q0 -1 -1 -1zM141 566q0 -9 -6.5 -15.5t-15.5 -6.5t-15.5 6.5t-6.5 15.5t6.5 15.5t15.5 6.5t15.5 -6.5t6.5 -15.5zM247 566q0 -9 -6.5 -15.5t-15.5 -6.5t-15.5 6.5t-6.5 15.5t6.5 15.5t15.5 6.5t15.5 -6.5t6.5 -15.5z" />
    <glyph glyph-name="divide" unicode="&#xf7;" horiz-adv-x="369" 
d="M56 298q165 37 254 53q9 1 16.5 -4t9 -14t-3.5 -16.5t-14 -9.5q-103 -18 -252 -51q-9 -2 -16.5 2.5t-9.5 13.5t2.5 16.5t13.5 9.5zM203 419q0 -9 -6.5 -15.5t-15.5 -6.5t-15.5 6.5t-6.5 15.5t6.5 15.5t15.5 6.5t15.5 -6.5t6.5 -15.5zM228 207q0 -9 -6.5 -15.5t-15.5 -6.5
t-15.5 6.5t-6.5 15.5t6.5 15.5t15.5 6.5t15.5 -6.5t6.5 -15.5z" />
    <glyph glyph-name="oslash" unicode="&#xf8;" 
d="M298 317q-101 -82 -206 -216q9 -19 21 -34q37 -44 87 -30q48 14 78 70.5t30 130.5q0 42 -10 79zM177 494q8 5 17 2q53 -18 90 -60t52.5 -92.5t15.5 -105.5q0 -84 -36.5 -154t-103.5 -89q-78 -23 -133 45q-46 56 -57 151q-7 60 3 118.5t42.5 111t85.5 77.5q13 6 24 -4z
M171 458q-60 -28 -87.5 -102.5t-17.5 -159.5q3 -24 8 -47q105 130 208 212q-34 71 -102 93q-4 2 -8 5q0 -1 -1 -1z" />
    <glyph glyph-name="ugrave" unicode="&#xf9;" 
d="M81 466q-1 -22 -6 -106q-4 -67 -4 -105q1 -94 15 -150q12 -43 29 -59q16 -15 43 -3q16 7 35 46q17 36 34 94q24 83 38 176q2 9 5 61q2 22 3 32q1 8 2 12q1 3 1.5 5.5t2.5 5.5q3 6 9 9q10 5 20 1.5t15 -13.5q3 -7 3 -19q0 -4 -1 -13v-8q1 -21 0 -75q-2 -45 1 -71
q3 -28 8 -145q4 -90 11 -142q1 -9 -4.5 -16.5t-14.5 -8.5t-16.5 4.5t-8.5 14.5q-7 54 -11 146q-3 74 -4 96q-8 -34 -17 -64q-17 -62 -37 -102q-26 -52 -56 -66q-53 -24 -91 10q-27 25 -41 80q-16 62 -17 162q0 42 4 108q5 83 6 105q0 9 7 15t16 6t15 -7t6 -16zM135 620
q15 -21 23 -31t20.5 -22.5t27.5 -23.5q7 -6 8.5 -15t-4 -16t-14.5 -8.5t-16 3.5q-18 13 -33 28.5t-23 26.5l-25 32q-5 7 -3.5 16t8.5 14.5t16 4t15 -8.5z" />
    <glyph glyph-name="uacute" unicode="&#xfa;" 
d="M81 466q-1 -22 -6 -106q-4 -67 -4 -105q1 -94 15 -150q12 -43 29 -59q16 -15 43 -3q16 7 35 46q17 36 34 94q24 83 38 176q2 9 5 61q2 22 3 32q1 8 2 12q1 3 1.5 5.5t2.5 5.5q3 6 9 9q10 5 20 1.5t15 -13.5q3 -7 3 -19q0 -4 -1 -13v-8q1 -21 0 -75q-2 -45 1 -71
q3 -28 8 -145q4 -90 11 -142q1 -9 -4.5 -16.5t-14.5 -8.5t-16.5 4.5t-8.5 14.5q-7 54 -11 146q-3 74 -4 96q-8 -34 -17 -64q-17 -62 -37 -102q-26 -52 -56 -66q-53 -24 -91 10q-27 25 -41 80q-16 62 -17 162q0 42 4 108q5 83 6 105q0 9 7 15t16 6t15 -7t6 -16zM136 515
q30 43 78 87q7 6 16 6t15 -7t6 -16t-7 -15q-42 -39 -72 -81q-5 -7 -14 -8.5t-16.5 3.5t-9 14t3.5 17z" />
    <glyph glyph-name="ucircumflex" unicode="&#xfb;" 
d="M81 466q-1 -22 -6 -106q-4 -67 -4 -105q1 -94 15 -150q12 -43 29 -59q16 -15 43 -3q16 7 35 46q17 36 34 94q24 83 38 176q2 9 5 61q2 22 3 32q1 8 2 12q1 3 1.5 5.5t2.5 5.5q3 6 9 9q10 5 20 1.5t15 -13.5q3 -7 3 -19q0 -4 -1 -13v-8q1 -21 0 -75q-2 -45 1 -71
q3 -28 8 -145q4 -90 11 -142q1 -9 -4.5 -16.5t-14.5 -8.5t-16.5 4.5t-8.5 14.5q-7 54 -11 146q-3 74 -4 96q-8 -34 -17 -64q-17 -62 -37 -102q-26 -52 -56 -66q-53 -24 -91 10q-27 25 -41 80q-16 62 -17 162q0 42 4 108q5 83 6 105q0 9 7 15t16 6t15 -7t6 -16zM91 559l46 57
q23 28 42 28q21 1 44 -26q5 -5 12 -14l18 -22l19 -23q6 -7 5 -16t-8 -15t-16 -5t-15 8l-18 23l-18 22q-6 8 -11 13l-10 10l-10 -11l-46 -57q-6 -7 -15 -8t-16 5t-8 15t5 16z" />
    <glyph glyph-name="udieresis" unicode="&#xfc;" 
d="M81 466q-1 -22 -6 -106q-4 -67 -4 -105q1 -94 15 -150q12 -43 29 -59q16 -15 43 -3q16 7 35 46q17 36 34 94q24 83 38 176q2 9 5 61q2 22 3 32q1 8 2 12q1 3 1.5 5.5t2.5 5.5q3 6 9 9q10 5 20 1.5t15 -13.5q3 -7 3 -19q0 -4 -1 -13v-8q1 -21 0 -75q-2 -45 1 -71
q3 -28 8 -145q4 -90 11 -142q1 -9 -4.5 -16.5t-14.5 -8.5t-16.5 4.5t-8.5 14.5q-7 54 -11 146q-3 74 -4 96q-8 -34 -17 -64q-17 -62 -37 -102q-26 -52 -56 -66q-53 -24 -91 10q-27 25 -41 80q-16 62 -17 162q0 42 4 108q5 83 6 105q0 9 7 15t16 6t15 -7t6 -16zM167 558
q0 -9 -6.5 -15.5t-15.5 -6.5t-15.5 6.5t-6.5 15.5t6.5 15.5t15.5 6.5t15.5 -6.5t6.5 -15.5zM254 565q0 -9 -6.5 -15.5t-15.5 -6.5t-15.5 6.5t-6.5 15.5t6.5 15.5t15.5 6.5t15.5 -6.5t6.5 -15.5z" />
    <glyph glyph-name="yacute" unicode="&#xfd;" horiz-adv-x="357" 
d="M67 452q-21 -131 -18 -235q2 -78 19 -119q16 -40 45 -39q15 1 36.5 27t44.5 72q37 76 56 149q6 23 19 104q2 10 3 47v4v4v2v2v2v2q0 2 1 4q15 31 37 9q2 -3 3.5 -6t1.5 -4l1 -2v-2v-1v-1v-1v-2v-1v-13q0 -51 -1.5 -145t-1.5 -170.5t3 -144.5q1 -18 5 -81q4 -51 4 -83
q0 -9 -6.5 -15.5t-15.5 -6.5t-15.5 6.5t-6.5 15.5q0 31 -4 80q-4 64 -5 82q-4 93 -2 233q-18 -47 -37 -86q-25 -51 -50 -81q-33 -41 -68 -43q-60 -3 -88 66q-19 49 -22 135q-3 106 18 242q2 9 9 14.5t16 4t14.5 -8.5t4.5 -16zM131 518q63 78 81 97q6 7 15 7t16 -6t7 -15
t-6 -16q-17 -18 -79 -95q-6 -7 -15 -8t-16 5t-8 15t5 16z" />
    <glyph glyph-name="thorn" unicode="&#xfe;" horiz-adv-x="423" 
d="M98 28q-8 -104 -25 -194q-2 -9 -9.5 -14t-16.5 -3.5t-14 9t-4 16.5q19 99 27 218.5t7.5 205t-3 228.5t-2.5 212q0 9 6.5 15.5t15.5 6.5t15.5 -6.5t6.5 -15.5q0 -27 4 -291q38 49 93 58q47 8 90 -17q44 -25 73 -80q29 -57 27.5 -119t-28.5 -117q-29 -58 -80 -93t-115 -34
q-41 1 -68 15zM102 78q25 -20 64 -21q51 -1 91.5 27t63.5 75q24 47 25 99t-22 98q-24 43 -55 61t-62.5 13t-57.5 -32t-38 -73q-1 -5 -4 -8q1 -135 -5 -239z" />
    <glyph glyph-name="ydieresis" unicode="&#xff;" horiz-adv-x="357" 
d="M67 452q-21 -131 -18 -235q2 -78 19 -119q16 -40 45 -39q15 1 36.5 27t44.5 72q37 76 56 149q6 23 19 104q2 10 3 47v4v4v2v2v2v2q0 2 1 4q15 31 37 9q2 -3 3.5 -6t1.5 -4l1 -2v-2v-1v-1v-1v-2v-1v-13q0 -51 -1.5 -145t-1.5 -170.5t3 -144.5q1 -18 5 -81q4 -51 4 -83
q0 -9 -6.5 -15.5t-15.5 -6.5t-15.5 6.5t-6.5 15.5q0 31 -4 80q-4 64 -5 82q-4 93 -2 233q-18 -47 -37 -86q-25 -51 -50 -81q-33 -41 -68 -43q-60 -3 -88 66q-19 49 -22 135q-3 106 18 242q2 9 9 14.5t16 4t14.5 -8.5t4.5 -16zM140 533q0 -9 -6.5 -15.5t-15.5 -6.5t-15.5 6.5
t-6.5 15.5t6.5 15.5t15.5 6.5t15.5 -6.5t6.5 -15.5zM235 530q0 -9 -6.5 -15.5t-15.5 -6.5t-15.5 6.5t-6.5 15.5t6.5 15.5t15.5 6.5t15.5 -6.5t6.5 -15.5z" />
    <glyph glyph-name="OE" unicode="&#x152;" horiz-adv-x="765" 
d="M368 615q5 53 8 82q1 9 8 15t16 5t15 -8t5 -16q-1 -13 -3 -31q71 8 239 45q9 2 16.5 -2.5t9.5 -13.5t-2.5 -16.5t-13.5 -9.5q-180 -40 -253 -48q-12 -138 -18 -268v-13q180 57 212 64q9 3 16.5 -2t10 -14t-2.5 -16.5t-14 -9.5l-66 -19l-82 -25l-65 -21q-5 -2 -11 -1
q-2 -84 0 -143q1 -27 2 -48q1 -3 1 -6q1 -10 2 -18q4 -26 9 -34l5 -1q11 -2 30 0q35 3 94 20q29 8 101 32q58 19 69 21q9 3 16.5 -2t10 -14t-2.5 -16.5t-14 -9.5l-65 -21q-74 -24 -103 -32q-64 -18 -102 -22q-25 -3 -42 0q-24 5 -35 21q-7 12 -11 32q-52 -41 -118 -47
q-63 -6 -110.5 26.5t-78.5 88.5q-26 49 -38 108q-13 59 -10 110q7 131 61 225q37 65 83.5 101t96.5 34q73 -2 124 -82zM361 529q-22 62 -53.5 92.5t-64.5 31.5q-34 1 -71 -27t-70 -86q-48 -85 -55 -205q-3 -47 8 -99q12 -53 35 -96q55 -101 146 -92q64 6 115 56q-1 20 -2 44
q-3 79 3 203q3 82 10 176q-1 1 -1 2z" />
    <glyph glyph-name="oe" unicode="&#x153;" horiz-adv-x="614" 
d="M511 396q0 1 -1 1q-2 8 -10 17q-19 24 -47 37q-31 16 -58 9q-33 -8 -57 -49q-32 -55 -39 -135l85 45q57 31 92 52q19 11 29 19zM304 440q33 51 80 62q43 11 88 -11q38 -18 63 -49q12 -15 17 -29q7 -20 0 -35q-3 -6 -10 -13q-4 -4 -11 -9l-33 -21l-92 -53l-109 -57
q2 -44 12 -80q14 -48 42 -76.5t61.5 -35t68.5 10t64 56.5q5 7 14 8.5t16.5 -3.5t9 -14t-3.5 -17q-36 -49 -82.5 -71t-94.5 -12q-53 10 -91 54q-51 -48 -111 -53q-91 -7 -143 53q-45 51 -51 137q-6 79 21 158q27 80 77 123q45 40 106 33.5t92 -56.5zM276 399q-15 42 -60 52
t-82 -22q-40 -35 -64 -105q-23 -69 -18 -138q5 -72 40 -112q38 -43 106 -38q47 4 90 46q-13 23 -21 51q-10 33 -13 71q-3 -1 -5 -2q-9 -4 -17.5 -0.5t-12 12t0 17t11.5 11.5q7 3 22 11q3 76 27 139q-2 3 -4 7z" />
    <glyph glyph-name="quoteleft" unicode="&#x2018;" horiz-adv-x="202" 
d="M159 726q-46 -34 -71 -72.5t-30 -89.5q-1 -9 -8 -15t-16 -5t-15 8t-5 16q10 114 119 194q7 5 16 3.5t14.5 -8.5t4 -16t-8.5 -15z" />
    <glyph glyph-name="quoteright" unicode="&#x2019;" horiz-adv-x="190" 
d="M154 738q6 -64 -13 -106.5t-66 -90.5q-7 -6 -16 -6t-15.5 6.5t-6.5 15.5t6 16q42 41 57 75t10 86q-1 9 5 16t15 8t16 -5t8 -15z" />
    <glyph glyph-name="quotedblleft" unicode="&#x201c;" horiz-adv-x="282" 
d="M126 721q-72 -44 -72 -133q0 -9 -6.5 -15.5t-15.5 -6.5t-15.5 6.5t-6.5 15.5q0 113 92 171q8 4 17 2t13.5 -9.5t2.5 -16.5t-9 -14zM233 703q-66 -25 -77 -120q-1 -9 -8.5 -14.5t-16.5 -4.5t-14.5 8.5t-4.5 16.5q7 53 32 95t73 61q9 3 17 -1t11.5 -12.5t-0.5 -16.5
t-12 -12z" />
    <glyph glyph-name="quotedblright" unicode="&#x201d;" horiz-adv-x="316" 
d="M151 732q2 -28 -5 -52.5t-24.5 -46.5t-30 -34t-36.5 -32q-5 -5 -8 -7q-7 -6 -16 -5t-15 8t-5 16t8 15q29 25 38 33q11 11 26.5 29t20.5 35t3 37q-1 9 5 16t15 8t16 -5t8 -15zM282 732q0 -113 -96 -188q-8 -6 -17 -5t-14.5 8.5t-4.5 16.5t8 14q80 62 80 154q0 9 6.5 15.5
t15.5 6.5t15.5 -6.5t6.5 -15.5z" />
    <glyph glyph-name="perthousand" unicode="&#x2030;" horiz-adv-x="653" 
d="M203 534q-6 1 -14 1t-19 -1l-4 -1q0 -5 -1 -13l-1 -7q-1 -7 -1 -10q-2 -16 1 -24q2 -3 3 -5q8 5 15 16q12 17 18 37q2 4 3 7zM554 94q2 0 5 2q10 8 16 30q5 21 0 28q-4 5 -18 7q-11 -31 -8 -52q1 -12 5 -15zM534 196q8 11 21 10q40 -5 56 -27q16 -23 6 -63
q-9 -36 -31 -54q-26 -21 -52 -7q-25 13 -29 49q-4 33 12 78q5 12 17 14zM389 103q2 0 5 2q10 8 16 30q5 21 0 28q-4 5 -18 7q-11 -31 -8 -52q1 -12 5 -15zM369 205q8 11 21 10q40 -5 56 -27q16 -23 6 -63q-9 -36 -31 -54q-26 -21 -52 -7q-25 13 -29 49q-4 33 12 78
q5 12 17 14zM161 582q19 2 84 15l135 28q120 25 126 26q27 5 42 7q8 2 13 2h6h5q6 -2 11 -6q12 -11 8 -26q-2 -7 -8 -14q-2 -3 -6 -8q-3 -2 -3 -3q-23 -30 -68 -76q-51 -52 -66 -70q-171 -204 -235 -404q-3 -8 -11 -12.5t-16.5 -1.5t-13 11t-1.5 17q66 207 243 418
q18 21 69 73q35 36 48 51l-9 -1l-125 -26l-135 -28l-8 -1q3 -8 1.5 -17.5t-5.5 -22.5q-9 -26 -24 -48q-20 -30 -41 -36q-18 -5 -33 6q-13 9 -20 28q-8 17 -5 44l2 18q1 9 1 15q0 11 8 17q2 15 17 19q6 5 14 6z" />
    <glyph glyph-name="Euro" unicode="&#x20ac;" horiz-adv-x="593" 
d="M432 559q-11 55 -29 80t-36 26t-42.5 -22t-47.5 -75q-32 -72 -48 -159q96 17 159 17q9 0 15.5 -6.5t6.5 -15.5t-6.5 -15.5t-15.5 -6.5q-62 0 -166 -19l-2 -23q-4 -37 -2 -79l54 9q71 11 120 13q9 0 16 -6t7 -15t-6 -16t-15 -7q-45 -2 -115 -13l-57 -9q5 -44 17 -80
q37 -113 123 -113q44 0 71 23q34 29 57 111q14 51 25 135q1 9 8.5 14.5t16.5 4.5t14.5 -8.5t4.5 -16.5q-12 -86 -27 -141q-26 -95 -71 -133q-38 -33 -99 -33q-64 0 -104 40t-61 103q-13 40 -19 88l-17 -3q-9 -1 -16.5 4.5t-8.5 14.5t4.5 16.5t14.5 8.5l20 2q-3 47 1 90l2 14
q-12 5 -15 17q-1 9 4 16.5t14 9.5h2q17 101 54 185q26 59 60 92q35 33 73 31q39 -2 66 -40t40 -102q1 -9 -4 -16.5t-14 -9t-16.5 3.5t-9.5 14z" />
    <glyph glyph-name="trademark" unicode="&#x2122;" horiz-adv-x="648" 
d="M16 642q149 48 200 59q9 1 17 -4t9.5 -13.5t-3.5 -16.5t-13 -10q-36 -7 -78 -19q6 -170 6 -321q0 -9 -6.5 -15.5t-15.5 -6.5t-15.5 6.5t-6.5 15.5q0 145 -5 307l-75 -24q-9 -3 -17 1.5t-11 13t1.5 16.5t12.5 11zM296 354q0 146 1 192q0 6 0.5 45t1.5 59v2q0 1 -0.5 3.5
t-0.5 6.5q-1 9 1 15q4 11 14 15t20 -1q6 -3 10 -10l2 -4q2 -4 4 -10l10 -28q17 -55 27 -81q19 -50 32 -74q3 -7 7 -11q4 6 8 17q9 21 22 67q33 113 45 133q0 1 2 4q2 7 3 10q4 8 10 13q12 11 27 6q11 -4 16 -16q2 -5 3 -12q3 -10 5 -28q1 -11 2.5 -31t2.5 -25q6 -59 8 -71
q4 -33 12 -68q2 -10 11.5 -52t13.5 -66q1 -9 -4.5 -16t-14.5 -8.5t-16 4t-9 14.5q-3 23 -12.5 64t-12.5 52q-7 35 -12 70q-2 13 -8 73q0 3 -3 29q-3 -12 -27 -92q-13 -47 -23 -70q-7 -17 -14 -28q-9 -15 -21 -20q-20 -9 -39 8q-10 10 -21 29q-15 27 -34 80l-4 10v-7
q-1 -47 -1 -192q0 -9 -6.5 -15.5t-15.5 -6.5t-15.5 6.5t-6.5 15.5z" />
  </font>
</defs>
</svg>
